<svg xmlns="http://www.w3.org/2000/svg" viewBox="0 0 421.25 397.1">
  <defs>
    <style>
      .cls-1 {
        fill: #a23d97;
      }

      .cls-2 {
        fill: #f1ca2c;
      }

      .cls-3 {
        fill: #fff;
      }

      .cls-4 {
        fill: #0eb3b5;
      }

      .cls-5 {
        fill: #121512;
      }
    </style>
  </defs>
  <title>Ресурс 15</title>
  <g id="Слой_2" data-name="Слой 2">
    <g id="Слой_4" data-name="Слой 4">
      <g>
        <path class="cls-1" d="M42.32,322.78a189.17,189.17,0,0,0,141.76,74,226.22,226.22,0,0,0,46.65-2.53,180.33,180.33,0,0,0,54.55-9.93,161.13,161.13,0,0,0,34.33-17A171.69,171.69,0,0,0,384,315.18c36.29-48.44,45-100.39,30.73-157.43C402,106.61,387.44,80.37,351,48.5,322.74,23.75,273.64-1.57,210.14.25,173.36-2.51,118.69,18.32,87,39.4-6.56,101.69-29.68,229.32,42.32,322.78Z"/>
        <path class="cls-2" d="M341.3,75.86C299.92,33.42,233,16.57,177.5,36.49A201.91,201.91,0,0,0,96.62,75C45.93,115.24,26,179.87,38.56,242.46,52.62,312.31,108.3,360.91,178.33,369c74.27,8.58,154.05-24.61,190.65-91.58C404.7,212.07,393.39,129.29,341.3,75.86Z"/>
        <path class="cls-3" d="M363,160.23a129.1,129.1,0,0,0-14.68-41,115,115,0,0,0-52-51.32,143.73,143.73,0,0,0-41.59-15.3c-53.12-10.68-113.4,3-153.35,40.67-21.24,20-32.7,46-35.69,73.17A138.24,138.24,0,0,0,59,214.06c1.81,51.06,30,101.52,77.75,122.61,55.63,24.57,122,8.65,168.17-28.33C349.47,272.71,373,216.86,363,160.23Zm-61-50.1c-.12-.3-.23-.61-.37-.91,1,.91,2,1.83,2.95,2.79Q303.31,111,302,110.13ZM315.32,229c.5,0,1,0,1.49,0q-1.23,2.28-2.55,4.49Q314.83,231.31,315.32,229Z"/>
        <path class="cls-4" d="M293.25,152.08c-14.95-20.38-35.37-27.74-55.77-29.92-21.36-2.29-45-4.14-66.24,0-19.07,3.69-38.92,17.52-46.86,42.59-17.33,33.7-.57,84.47,24.84,102.59,18.25,13,39.05,15.75,59.25,17.63,21.19,2,43.19,1.8,62.92-10.44C306.11,252.94,322.61,192.11,293.25,152.08Z"/>
        <path class="cls-5" d="M206.34,172c-25.54,6-31.15,41.82-10.45,56.66s51.28,1.65,55.63-23.09c4.5-25.55-18.12-49-44-40.58-11.81,3.82-21,13.41-22.63,25.94a33.88,33.88,0,0,0,15,32.09c26,16.82,58.18-16.25,41.6-42-3.63-5.65-12.59-9.51-18.68-4.9-10.72,8.11-17.07,21.75-11.65,35,2.79,6.82,9.08,11.66,16.8,9.54,6.46-1.78,12.34-9.93,9.54-16.8,0,.06-1.67-4.51-1-2.68,0,.1.94-2.11.13-1.5l-18.68-4.9c.93,1.45,1.13,1.54.69.22.47,1.41.24,1.06-.22,2.44a17.18,17.18,0,0,1-2.19,3c1.14-1-.79.07-.59.16,1.36.56-.52-.15-.9-.34a8.17,8.17,0,0,1-2.47-3.28c-1-2.25-.76-4,2.19-5.43,2.46-1.22,6.19-1.21,7.87.3,6.75,6.09.78,16.52-7.22,15.74a9.86,9.86,0,0,1-4-1.48c.05,0-.9-2.24-.81-1.38-.35-3.21,0-3,.95-4.91.78-1.56.16-.94,2.37-1.46,17.1-4,9.86-30.36-7.26-26.34Z"/>
      </g>
    </g>
  </g>
</svg>
