<svg xmlns="http://www.w3.org/2000/svg" viewBox="0 0 196.63 145.32">
  <defs>
    <style>
      .cls-1 {
        fill: #0f1110;
      }

      .cls-2 {
        fill: #101211;
      }
    </style>
  </defs>
  <title>Ресурс 8</title>
  <g id="Слой_2" data-name="Слой 2">
    <g id="Слой_4" data-name="Слой 4">
      <g>
        <path class="cls-1" d="M57,78.28C65.17,69,71.65,57.86,78.53,47.64q10.84-16.08,21.68-32.15c1.11-1.64-.69-5.64-2.27-3.27Q87.37,28.08,76.73,43.91c-7.06,10.53-15,21-20.81,32.28-.34.66.14,3.22,1.12,2.09Z"/>
        <path class="cls-1" d="M98.61,13.48c.58,7,2.52,13.95,4,20.82,1.5,6.72,3,13.43,4.45,20.16q4.43,20.89,8.11,41.92c.63,3.63,4,1.35,3.48-1.56-2.41-14-5-28-8-42-1.43-6.73-2.88-13.45-4.5-20.14s-3-13.74-5.8-20c-.62-1.36-1.9-.39-1.8.79Z"/>
        <path class="cls-1" d="M56.34,78c2,3.77,8,4.52,11.85,5.79q8.21,2.74,16.47,5.35,7.92,2.5,15.88,4.87,4,1.19,8,2.35c2.51.73,5.13,1.83,7.77,1.78,2.09,0,1.54-3.64.28-4.39-2.36-1.39-5.3-1.86-7.93-2.59s-5.32-1.5-8-2.26q-8-2.29-15.91-4.69T68.89,79.36c-2.41-.76-4.82-1.53-7.25-2.25s-3.3-1.45-5.16,0a.86.86,0,0,0-.14.93Z"/>
        <path class="cls-1" d="M99,15c3.11,5,7.15,9.52,10.86,14.06,3.85,4.71,7.79,9.33,11.78,13.92,7.59,8.72,15.08,17.85,23.38,25.89,2.14,2.07,3.48-3.14,2.21-4.64-7.66-9-16.09-17.46-24-26.32q-5.79-6.52-11.56-13.05c-3.72-4.19-7.27-8.8-11.44-12.54C98.88,11,98.5,14.15,99,15Z"/>
        <path class="cls-1" d="M117.77,97.16c2.88-1.35,5-3.72,7.3-5.92,2.59-2.54,5.11-5.16,7.67-7.74,4.88-4.93,10.36-9.69,14.61-15.17,1.07-1.39,0-5.75-2.17-4-5.39,4.36-10,10.18-14.76,15.22-4.61,4.86-10.31,9.67-13.46,15.64-.27.51-.24,2.5.82,2Z"/>
        <path class="cls-1" d="M55.64,79c3.77,5.9,9,11.08,13.42,16.54,4.54,5.64,8.95,11.38,13.29,17.17,4.22,5.63,8.37,11.3,12.58,16.93q3.06,4.09,6.17,8.16c1.83,2.38,3.69,5.93,6.5,7.2,1.92.86,2-2.63,1.71-3.6-1.09-3.19-3.85-5.82-5.89-8.46s-4.13-5.41-6.18-8.13c-4.35-5.78-8.64-11.61-13-17.38-4.23-5.59-8.51-11.13-13-16.51-4.21-5-8.7-11.18-14.22-14.8C55.34,75,55,78,55.64,79Z"/>
        <path class="cls-1" d="M116.16,94.91c-2.62,6.84-3.44,14.59-4.88,21.75-1.69,8.41-3.46,16.81-5.15,25.22-.61,3,3,5.19,3.69,1.45,1.63-8.44,3.33-16.86,5-25.3,1.41-7.3,3.29-15,3.1-22.46,0-1.06-1.2-2-1.72-.66Z"/>
        <path class="cls-1" d="M109.33,144.06c4.47-5.51,7.31-13,10.61-19.21,3.53-6.68,7.06-13.35,10.52-20.06,3.26-6.31,6.47-12.65,9.55-19,2.84-5.91,6.72-12.36,8.05-18.8.21-1-.83-2.87-1.79-1.51-1.71,2.43-2.61,5.52-3.81,8.23q-2.19,4.94-4.46,9.83c-3.14,6.74-6.45,13.39-9.83,20-3.24,6.36-6.54,12.69-9.82,19-3.38,6.53-7.75,13.25-9.85,20.32-.11.36.23,1.91.82,1.19Z"/>
        <path class="cls-2" d="M16.92,3.17C25.12,11.91,33.27,21,42.24,28.92c1.63,1.45,2.19-2.34,1.21-3.4-8-8.7-17-16.62-25.75-24.56-1-.94-1.44,1.51-.78,2.21Z"/>
        <path class="cls-2" d="M.8,49.52C5.23,51.82,9.7,54,14.18,56.24c4,1.95,8.15,4.76,12.59,5.32,1.45.18,1.18-2.63.49-3.22-3.5-3-8.25-4.46-12.43-6.31-4.49-2-9-4-13.51-5.84C-.24,45.54-.42,48.88.8,49.52Z"/>
        <path class="cls-2" d="M18.17,108.72c7.08-4.09,14-8.33,21-12.65,1.72-1.07.92-5.79-1-4.62-7,4.37-14,8.79-20.83,13.39-1.33.89-.89,4.86.8,3.88Z"/>
        <path class="cls-2" d="M144.83,23.27a65.92,65.92,0,0,1,10-11.4c3.62-3.27,8.17-5.59,11.63-9,.57-.56.71-3.16-.59-2.88-4.7,1-9.12,5.08-12.5,8.3a57.67,57.67,0,0,0-10,12.76c-.63,1.08.4,3.78,1.51,2.18Z"/>
        <path class="cls-2" d="M166.36,54.54c5-1.21,9.9-2.52,14.83-3.94,4.77-1.38,10.33-2.4,14.63-4.91,1.07-.62,1.25-3.64-.41-3.58-4.8.17-9.91,2.38-14.48,3.8-5.15,1.59-10.23,3.28-15.3,5.1-1.45.52-1,4,.73,3.54Z"/>
        <path class="cls-2" d="M161.27,95.78c11.06,6.07,22.39,11.69,33.88,16.91,1.28.58,1.49-2.27.44-2.82-11.11-5.87-22.43-11.4-34-16.4-1.08-.47-1.2,1.86-.36,2.32Z"/>
      </g>
    </g>
  </g>
</svg>
