<svg xmlns="http://www.w3.org/2000/svg" viewBox="0 0 516.4 394.88">
  <defs>
    <style>
      .cls-1 {
        fill: #c0c9d1;
      }

      .cls-2 {
        fill: #45b4b5;
      }

      .cls-3 {
        fill: #a1407d;
      }

      .cls-4 {
        fill: #f2ca29;
      }
    </style>
  </defs>
  <title>Ресурс 9</title>
  <g id="Слой_2" data-name="Слой 2">
    <g id="Слой_4" data-name="Слой 4">
      <g>
        <path class="cls-1" d="M355,159c-13.6-48.3-57.82-60.87-101.78-59.24a1.41,1.41,0,0,0-1.22-1c-48.8-3.26-99.24,23.07-104.28,75-4.06,41.75,2.5,89.88,41.51,113.3,37.54,22.54,100.2,27.42,134.92-2.47C358.5,254.88,366.82,201.14,355,159Z"/>
        <path d="M2.21,227.68c42.73-11.58,73.22-46.37,104.59-75.33C147,115.23,192.38,92.12,248.2,92.07c54.8,0,107.17,21.87,150.11,55,36.87,28.48,66.13,73.41,114.21,83.52,3.65.77,4.21-6.7,1.14-7.34-51.16-10.72-82.61-61.57-123.36-90.36-41.57-29.37-91-48.35-142.28-48.21-49.8.13-94.52,18.5-131.83,51-36.76,32-67.75,70.17-115,87.1-2,.72-1.4,5.54,1,4.89Z"/>
        <path d="M3.45,227.61c44.36,15.5,79.95,47.56,122.62,66.67a319.74,319.74,0,0,0,133.33,27.78,322.11,322.11,0,0,0,132.76-30.37c40.73-19.1,76-54.74,122-60.55,3.19-.4,2.91-7.55-.18-7.16-42.41,5.36-74.37,35.65-111,54.82a318,318,0,0,1-138.29,36.15,319.48,319.48,0,0,1-137.58-27.3C84.82,268.91,49.35,235,4.16,223c-2.24-.59-2.58,3.93-.71,4.58Z"/>
        <path class="cls-2" d="M224.1,122.27c-14.86,3.48-28.95,8.56-40.67,20.13-19.26,19-19.46,50.13-15.32,75.34,8.16,49.72,54.2,66.32,99.44,64.56,55.86-2.18,80.3-58.49,70.1-108.39C326.44,119.09,269.28,118.58,224.1,122.27Z"/>
        <path class="cls-3" d="M340.94,164.9c-11.72-41.64-49.84-52.47-87.74-51.07a1.22,1.22,0,0,0-1.05-.87c-42.07-2.81-85.56,19.89-89.9,64.62-3.5,36,2.16,77.48,35.79,97.67,32.36,19.43,86.38,23.64,116.31-2.13C344,247.58,351.17,201.25,340.94,164.9ZM267.55,282.29c-45.24,1.77-91.29-14.84-99.44-64.56-4.14-25.21-3.94-56.35,15.32-75.34,11.73-11.57,25.82-16.65,40.67-20.12,45.18-3.69,102.34-3.18,113.55,51.63C347.85,223.8,323.4,280.11,267.55,282.29Z"/>
        <path class="cls-4" d="M236.26,153.56a1.19,1.19,0,0,1-1-.22c-25.12,13.12-40.52,43.78-21.52,70,12.86,17.72,38.7,26,59.1,17.38,22.59-9.51,34.22-38.54,25-61.22C287.84,154.8,259.91,147.93,236.26,153.56Z"/>
        <path class="cls-3" d="M302.57,181.12c-7.06-23.8-32.68-38.72-56.49-34.74a.73.73,0,0,0-.75-.37c-31.74,5.33-50.94,37.84-40.8,68.49,8.77,26.48,41.11,42.23,67.4,32.61C297.45,237.78,310.05,206.39,302.57,181.12Zm-29.75,59.56c-20.4,8.58-46.24.34-59.1-17.38-19-26.17-3.6-56.83,21.52-70a1.19,1.19,0,0,0,1,.22c23.65-5.63,51.58,1.23,61.58,25.9C307,202.14,295.41,231.18,272.81,240.68Z"/>
        <path d="M264.34,180.15c-5.23-5.39-15.22-8.73-21.6-3.26-3.44,2.94-5.4,7.63-5.91,12.59A16.88,16.88,0,0,0,236.5,201c5.39,16.38,26.81,15.88,32.53-.05A20.31,20.31,0,0,0,264.34,180.15Zm-11.94,13.07c0,.21,0,.42,0,.62C251.46,193.34,251.44,193.13,252.39,193.22Z"/>
        <path class="cls-4" d="M197.84,152a8.4,8.4,0,0,0-6.59-.43,7.12,7.12,0,0,0-3.25,2.27,9.93,9.93,0,0,0-1.38,4.2,5.37,5.37,0,0,0,.52,3.6,7.47,7.47,0,0,0,.64,1.48c2.64,4.6,8.85,4.65,12.28,1A7.62,7.62,0,0,0,197.84,152Z"/>
        <path class="cls-4" d="M188.73,198.47a10.11,10.11,0,0,0-8.37.87,4.62,4.62,0,0,0-3.73,3.31,8.71,8.71,0,0,0,4.57,10.05,8.15,8.15,0,0,0,10.58-3.32C194.07,205.6,193.19,200.06,188.73,198.47Z"/>
        <path class="cls-4" d="M212.17,245.69c-2.56-4.39-8.83-6.12-12.55-2.07a8.71,8.71,0,0,0-1.9,7.67c.23,3.94,4.15,7.61,8.31,7.05A8.52,8.52,0,0,0,212.17,245.69Z"/>
        <path class="cls-4" d="M264.53,260.2a8.73,8.73,0,0,0-10.49-1,4.07,4.07,0,0,0-1.27.91,3.69,3.69,0,0,0-.87,1.11A8.67,8.67,0,0,0,252,271a8.31,8.31,0,1,0,12.55-10.81Zm-5.34,5.19c.13.07.17.12,0,0Zm-.64,1.9h0l0,0Z"/>
        <path class="cls-4" d="M317.46,237.86c-1.76-5.26-8-7.44-12.35-3.69-3.6,3.09-4.05,9.25-.32,12.43,4.75,4,12,1.5,13.91-4.17A4.61,4.61,0,0,0,317.46,237.86Z"/>
        <path class="cls-4" d="M326.76,185.13a7.42,7.42,0,0,0-7.94,2.08,6.78,6.78,0,0,0-2.47,10.24c3.24,4.08,9.65,3.72,13,0C332.83,193.5,332.13,186.91,326.76,185.13Z"/>
        <path class="cls-4" d="M237.86,125.55a7.88,7.88,0,0,0-7.15,1.83c-2.07,2.07-2.14,5.67-.81,8.13a6.73,6.73,0,0,0,5.28,3.55,6.38,6.38,0,0,0,5.94-1.5C245,133.78,243.28,126.76,237.86,125.55Z"/>
        <path class="cls-4" d="M301.69,141.6c-1.57-5.19-7.62-8.6-12.68-5.91a6.88,6.88,0,0,0-3.72,7.49,6.68,6.68,0,0,0-.13.84c-.43,4.92,4.46,8.59,9,8.5C299.84,152.41,303.27,146.82,301.69,141.6Z"/>
        <path d="M244.89,175.45c-9,3.5-15,13.13-12.14,22.86s13.37,14.57,22.72,12.4c5.84-1.36,3.37-10.34-2.48-9-10.93,2.54-16.31-13.15-5.62-17.29,5.53-2.14,3.13-11.16-2.48-9Z"/>
        <path d="M240.67,1.42c-5.43,28.35-4.43,58.66,1,87,.87,4.5,4.66,1.55,4.24-1.9l-.29-2.4c-.23-1.83-2.25-2.33-2.94-.51l-.84,2.2,4.08.71c-3.79-28.59-4-55.84-2.57-84.58.1-2.08-2.24-2.76-2.67-.48Z"/>
        <path d="M149.43,10.72c-4.45,33.22,7,65.42,21,95.11l3-4.8-2.05-2c-1.94-1.91-2.84,2.51-2.31,3.71l1.38,3.11c1.85,4.18,5-.66,3.83-3.58-11.7-29.52-24.8-57.93-22.41-90.58.14-2-2.1-3.53-2.44-1Z"/>
        <path d="M73.71,64.73c5.8,24.95,16.31,65.37,44.68,73.63,2.73.79,3-4.28,1.38-5.5-12.82-9.64-21.59-17.53-28.93-32.42A285.21,285.21,0,0,1,76,63.18c-.72-2.2-2.65,0-2.29,1.55Z"/>
        <path d="M22.67,115.66c-2.24,29.71,14.3,58,37.72,75.36,3.34,2.47,4.92-4.81,2.38-6.69-23.09-17.09-34.33-41-39.3-68.69-.1-.56-.76-.58-.81,0Z"/>
        <path d="M340.19,17.86c-2.75,14.8-5.31,29.77-10,44.1-1.21,3.67-13,32.63-15.09,32.15l.9,4.54.24-.48c.52-1,.71-4.4-1.25-4.19l-.37,0c-1.82.19-2,2.84-1.45,4.15l.33.8c.46,1.1,1.79,2.16,2.88,1.07,19.72-19.75,23.36-55,26.56-81.12.27-2.22-2.19-3.86-2.72-1.06Z"/>
        <path d="M434.73,58.1c-5.27,15.42-13.22,29.38-24.69,41a103.75,103.75,0,0,1-17.23,14.19c-2.06,1.34-15.93,10.66-17.72,9.5-1.45-.93-2.54.83-2.39,2.19,1.52,13.6,28.61-9.28,32.89-13.09a101.26,101.26,0,0,0,31.16-52.62c.31-1.34-1.37-3.1-2-1.23Z"/>
        <path d="M506.29,119.37c-9.65,12.91-18.76,26.14-30.95,36.86-12,10.54-25,14.19-38.59,21.32-1.53.8-1.55,4.59.53,4.67,14,.49,28.55-10.23,38.71-19.1,13.09-11.43,23.68-26.12,32-41.3.66-1.2-.36-4.23-1.69-2.45Z"/>
        <path d="M75.47,348.59c5.17-16.88,15.05-29.94,23.41-45.07.66-1.2.08-5.21-1.92-3.57-13.39,11-19.83,31.23-23.41,47.48-.28,1.27,1.37,3,1.92,1.17Z"/>
        <path d="M169.64,383.44c1.6-9.89,1.8-20,4.77-29.65,2.46-8,6.86-14.57,11.62-21.35.57-.82.16-4.42-1.39-3.39-16.29,10.77-18.16,36.48-17.06,54,.1,1.52,1.76,2.23,2.06.37Z"/>
        <path d="M273.6,393.74c1.53-18.28,3.18-39.05-2.73-56.72-.88-2.64-3.1-.42-3.1,1.37,0,18.29,3.8,36.54,3.71,55,0,1.59,2,2.28,2.12.38Z"/>
        <path d="M388,366.36a99.19,99.19,0,0,0-4.42-27.31c-2.46-7.74-6-18.74-12.81-23.7-1.79-1.29-2.18,1.89-1.84,3,2.39,7.34,7.19,13.67,10.1,20.87a99.33,99.33,0,0,1,6.58,27.24c.22,2.18,2.46,2.22,2.39-.06Z"/>
        <path d="M466.26,330.11c-.38-9.42-2.49-18.39-7.39-26.53-5.43-9-13.85-14.31-21.06-21.65-1-1.06-1.88.91-1.85,1.7.32,7.38,5.8,10,11.11,14.39a45.94,45.94,0,0,1,16.68,32.15c.17,2.32,2.6,2.31,2.51-.06Z"/>
      </g>
    </g>
  </g>
</svg>
