<svg xmlns="http://www.w3.org/2000/svg" viewBox="0 0 95.06 95.84">
  <defs>
    <style>
      .cls-1 {
        fill: #0f1110;
      }
    </style>
  </defs>
  <title>Ресурс 13</title>
  <g id="Слой_2" data-name="Слой 2">
    <g id="Слой_4" data-name="Слой 4">
      <g>
        <path class="cls-1" d="M1.52,95.29C10.15,80.7,17.66,65.44,25.64,50.49S41.83,20.35,50.13,5.39l-3,.07Q59.33,27.11,70.48,49.32q5.42,10.81,10.6,21.74,2.59,5.46,5.13,11c1.48,3.21,2.58,7.1,5.27,9.5,1.29,1.15,3.51,1.08,3.39,0-.42-3.94-3.39-9.35-5-12.91s-3.39-7.32-5.11-11Q79.28,56.11,73.51,44.73,62.28,22.52,50,.86a1.68,1.68,0,0,0-3,.07C38.65,16.13,30.37,31.4,22.34,46.8,14.4,62,6.86,75.51.15,91.35c-.5,1.18.28,5.77,1.36,3.94Z"/>
        <path class="cls-1" d="M1,95.4c7.57,1.06,14.37-.1,21.91-.07q11.8,0,23.59.09c7.63,0,15.26,0,22.89,0,8-.09,16.36.44,24.25-1.32,1.54-.34,2-3.81.27-4.2-7.41-1.65-15.06-1.27-22.61-1.36-8.09-.09-16.19-.08-24.28-.07-7.86,0-15.72.06-23.59.09-7.71,0-14.7-1.05-21.91,1.94C.85,90.76-.18,92.67.5,93Z"/>
      </g>
    </g>
  </g>
</svg>
