<svg xmlns="http://www.w3.org/2000/svg" viewBox="0 0 303.29 293.8">
  <defs>
    <style>
      .cls-1 {
        fill: #a13f97;
      }

      .cls-2 {
        fill: #0d1311;
      }

      .cls-3 {
        fill: #f3cb29;
      }

      .cls-4 {
        fill: #dadde0;
      }

      .cls-5 {
        fill: #fff;
      }

      .cls-6 {
        fill: #139a9c;
      }
    </style>
  </defs>
  <title>Ресурс 26</title>
  <g id="Слой_2" data-name="Слой 2">
    <g id="Слой_4" data-name="Слой 4">
      <g>
        <g>
          <path class="cls-1" d="M295.16,110.66C286.62,75.43,261.4,47.4,230.49,29.6,190.79,6.73,147.26,2,107.18,14.42,51,34.14,2.68,87.93,5.23,148.65c2.57,61.31,49.67,116.5,108.06,133,59.89,16.91,125.58-12,160.34-62.15C295.38,188.09,304.23,148.08,295.16,110.66Z"/>
          <path class="cls-2" d="M265.59,47.85c-53-53.28-142.31-65.52-201.76-19.06C32.71,51.15,9.21,85.19,2.2,121.66c-12.23,63.61,28,128.88,84,157.3,62.82,31.9,138.72,10,182.69-43C313.9,181.71,316.71,99.2,265.59,47.85ZM113.28,281.63C54.89,265.14,7.8,210,5.23,148.65,2.68,87.93,51,34.14,107.18,14.42,147.26,2,190.79,6.73,230.49,29.6c30.9,17.8,56.13,45.83,64.67,81.06,9.07,37.42.22,77.43-21.54,108.83C238.86,269.64,173.18,298.55,113.28,281.63Z"/>
        </g>
        <g>
          <path class="cls-3" d="M204.76,57.08C159.19,36.83,104.3,43.15,73.29,81.52l0,0c-35.16,47.94-32.58,118,25.32,146.05,23.89,11.57,48,18,74.51,12.26a104.42,104.42,0,0,0,63.79-42.92c16.17-23.37,25.37-55.5,18.15-83.6C248.51,88,228.32,67.55,204.76,57.08Z"/>
          <path class="cls-4" d="M201.68,48.32C149,27.67,85.06,40.52,59.45,95a2.47,2.47,0,0,0-.14,1.26c-17.66,30.55-19.51,70-2.31,101.44,21.49,39.32,77.37,58.61,119.61,48.3,45-11,77.23-50.94,84.2-96C267.7,105.5,243.64,64.78,201.68,48.32Zm35.21,148.63a104.42,104.42,0,0,1-63.79,42.92c-26.47,5.71-50.62-.7-74.51-12.26-57.89-28-60.48-98.12-25.32-146.05l0,0c31-38.37,85.9-44.69,131.47-24.43C228.32,67.55,248.51,88,255,113.35,262.26,141.45,253.06,173.58,236.89,196.95Z"/>
        </g>
        <g>
          <path class="cls-3" d="M176.48,68.54c-38.33-7-78.86,7.88-95.36,42.72,0,0,0,0,0,0-17.89,42.87-3,95.62,46.07,106.27C147.46,222,167,222.39,186,213.19a81.59,81.59,0,0,0,40.56-44.33c8-20.72,9.07-46.81-1.58-66.83C215.38,83.94,196.29,72.16,176.48,68.54Z"/>
          <path class="cls-5" d="M172.52,62.45c-43.78-6-90,15.51-99.44,61.62a1.94,1.94,0,0,0,.13,1c-7.8,26.45-2,56.73,16.89,77.46,23.55,25.91,69.53,30.29,99.72,14.7,32.18-16.63,49.29-52.88,46.3-88.38C233.17,93.74,207.42,67.24,172.52,62.45Zm54.06,106.41A81.59,81.59,0,0,1,186,213.19c-19.05,9.2-38.57,8.78-58.84,4.38-49.12-10.65-64-63.4-46.07-106.27,0,0,0,0,0,0,16.5-34.84,57-49.73,95.36-42.72,19.81,3.62,38.9,15.4,48.53,33.49C235.65,122.05,234.57,148.14,226.59,168.86Z"/>
        </g>
        <g>
          <path class="cls-6" d="M134.29,101.11a1.08,1.08,0,0,1-1.23-.27c-14.43,6.36-25.54,19-24.51,36.56,1.39,23.63,23,39.78,45.78,37.52,25.1-2.49,45.13-28.53,35-53.3C179.94,98.52,155.73,93.75,134.29,101.11Z"/>
          <path class="cls-4" d="M195.66,125.3c-5.48-24.15-30.51-39.16-53.39-32.16-22.28,1.19-39,21.64-38.17,44.36,1,28.3,27,49.35,54.93,43.93C184.55,176.49,201.38,150.54,195.66,125.3Zm-41.33,49.61c-22.8,2.27-44.39-13.89-45.78-37.52-1-17.56,10.07-30.2,24.51-36.56a1.08,1.08,0,0,0,1.23.27c21.44-7.37,45.66-2.59,55.07,20.5C199.46,146.39,179.43,172.42,154.33,174.92Z"/>
        </g>
        <path class="cls-2" d="M165.18,124.07a14.11,14.11,0,0,0-9.16-5.93c-5.16-2.18-11.54-1.19-16.21,1.92-13.84,9.23-8.09,29.5,8,31.63C162,153.57,174.14,136.27,165.18,124.07Z"/>
        <path class="cls-5" d="M29.91,94.51c-11.82,13.11-14,33-12.27,50,.4,4,2.21,10.63,7.64,9.59s5.59-8.52,5.13-12.55c-1.51-13.14,2.59-25.27,5.95-37.76C37.12,101,34.88,89,29.91,94.51Z"/>
        <path class="cls-5" d="M57.74,50.66c-3.64.07-5.56,3.94-7.47,6.59-1.79,2.48-3.29,5-4.91,7.6a9.9,9.9,0,0,0-.14,9.56c1.27,2.23,3.94,3.94,6.21,1.72C55.85,71.82,62.11,66.94,63,60.51,63.41,57.25,62.35,50.58,57.74,50.66Z"/>
        <path class="cls-5" d="M25.21,176.73c-2,10.23,2.73,26.14,14.68,27.76,2.4.33,4-3.09,4.47-4.81a10.51,10.51,0,0,0-1.24-8.32c-3.48-4.94-7.38-9.27-8.62-14.86-.5-2.24-2-5.34-4.78-5.27s-4.06,3.24-4.51,5.5Z"/>
        <path class="cls-5" d="M255.11,184c-8.78-11.82-39.54-32.81-48.64-11.26-4.75,11.24,1.82,22.48,11.82,30.48a49.36,49.36,0,0,0,20.08,16.21c9.11,4.07,18.6,1.91,22-8.18C263.52,202,260.74,191.57,255.11,184Z"/>
        <path class="cls-5" d="M269.16,130.11a10.86,10.86,0,0,0-10.55-2.31c-9.54,2.9-11.64,16.8-6.7,24.28a11.07,11.07,0,0,0,8.28,5,7.5,7.5,0,0,0,6.62-2.63c.24-.07.48-.15.71-.25,3.87-1.59,6.07-5.65,6.52-9.66C274.62,139.38,273.22,133.67,269.16,130.11Z"/>
      </g>
    </g>
  </g>
</svg>
