<svg xmlns="http://www.w3.org/2000/svg" viewBox="0 0 426.15 329.71">
  <defs>
    <style>
      .cls-1 {
        fill: #f3cb29;
      }

      .cls-2 {
        fill: #0eb3b5;
      }

      .cls-3 {
        fill: #101211;
      }

      .cls-4 {
        fill: #ba388a;
      }
    </style>
  </defs>
  <title>Ресурс 14</title>
  <g id="Слой_2" data-name="Слой 2">
    <g id="Слой_4" data-name="Слой 4">
      <g>
        <path class="cls-1" d="M35.36,233.26c-8.09,3.34-14.3,12.87-18.5,20.15-4.44,7.71-8,16.54-5.07,25.39,1.13,3.38,4.33,3.62,6.34,1.08,7.15-9.07,12.67-19.79,18.66-29.64,2.52-4.14,6.9-9.69,4.5-14.77-1.44-3-5.08-3.56-6.18.15a17.9,17.9,0,0,0-.53,2.46c-.32,2.14.4,5.06,2.87,5.41l-.87-.45.61-10c-3.63,2.16-6.06,9-8.29,12.42-5.6,8.58-10.21,17.89-16.65,25.89l6.34,1.08c-1.31-4.06,5.59-13,7.67-16a91.09,91.09,0,0,1,12-13.89c2.35-2.25,1.85-11.27-2.83-9.33Z"/>
        <path class="cls-1" d="M96.16,252.33c-6.77,5.07-9.94,16.65-11.87,24.48-1.58,6.4-5,17.58-.7,23.58A2.86,2.86,0,0,0,87,301.65c5.71-1.51,6.59-11.87,8-16.59,2.55-8.46,5.63-16.93,7.24-25.62.8-4.32-4.08-10-6.51-4-2.35,5.82-3.71,12-5.37,18.1-.6,2.17-3.18,17.39-5.45,18l3.38,1.26q.75,4.46.67-2.54.3-2.76.79-5.5a76.62,76.62,0,0,1,2.39-9.53c2-6.31,5.56-12.05,7.19-18.43.45-1.77-.34-6.64-3.14-4.54Z"/>
        <path class="cls-1" d="M164.1,264.69c-5.9,9.75-9.14,21-10.91,32.24-.89,5.6-4.86,21.69.83,26.17,11.86,9.33,17.57-48.36,18.41-53.6.75-4.71-4.06-10.46-6.94-4.22-5.86,12.66-11.68,27.94-11,42.13.17,3.46,4.38,7.26,6,2.29,4.18-13.06,5.91-26.12,11.61-38.84l-6.94-4.22-3.32,22.25c-.88,5.92-5,18-3.06,23.74-1.7-5.08,1.25-15.08,2.27-20.31,1.58-8.14,4.12-16,6.38-23.94.52-1.85-1.32-7-3.31-3.7Z"/>
        <path class="cls-1" d="M233.66,267.07c-2.08,14.43-.56,29.61-.23,44.15.11,4.58-1.25,18.39,6.6,18.48,15.73.18,4-55.33,1.54-63.44-2.2-7.27-8.49-2.85-7.22,3.24,2,9.38,4.18,18.61,5.08,28.19q.51,5.37.61,10.77c0,1.84.24,10.61.48,4.75.61-14.81.36-31.71-2.49-46.25-.61-3.13-3.92-3.06-4.38.11Z"/>
        <path class="cls-1" d="M295.07,256.53c1,11.49,4.55,22.69,7.46,33.81,1.9,7.27,3.21,15,10.6,18.44,2.33,1.08,4.06-2.1,4.28-3.89,2.25-18.49-5.19-34.36-14-50.17-3.19-5.73-7.26,2.71-6.51,6.06,3.09,13.8,6,28,10.54,41.35,2.24,6.54,7.29-.23,6.59-4.47l-.23-1.4c-.62-3.8-4.32-4.56-5.93-1l-.57,1.26,6.73,1.17c-2.78-13.5-6.67-26.79-9.54-40.3L298,263.44c6.8,11.82,14.28,24.58,12.47,38.75l4.28-3.89c-5.9-2.8-7.74-18.88-9.35-24.53-1.82-6.42-3.5-13-6.46-19-1.4-2.85-4.1-.91-3.88,1.71Z"/>
        <path class="cls-1" d="M347.77,240.67c2,7.84,6.46,14.82,10.38,21.83,3.81,6.81,7.21,13.89,13.18,19.09a2.73,2.73,0,0,0,4.18-.93c3.39-6.28,1.29-11.9-2.19-17.67-5.56-9.21-11.65-18.14-17.49-27.18-3.86-6-8.2,4.39-5.35,8.6l10.13,15c.76,1.13,10.06,13.5,9.81,13.93l4.18-.93c-10.17-10-13.14-26-24-35.25-2.06-1.75-3.24,2.06-2.87,3.53Z"/>
        <path class="cls-1" d="M392.59,212.36c8.65,9.07,19,16.25,27.41,25.59a2.43,2.43,0,0,0,3.41-.08c6.31-7.16.47-15.77-4.81-21.54-5.68-6.21-15.41-14.6-24.22-15.09l1.18,10.39a9,9,0,0,0,2.3-1.31c2-1.33,2.75-5.67.44-7.2a22.41,22.41,0,0,0-3-1.71c-4.46-2.1-5.32,7.71-2.44,9.76,4.74,3.36,10.41,5,15.16,8.53a58.3,58.3,0,0,1,5.93,5.06,45.72,45.72,0,0,1,3.38,3.56l1.09,1.33q1.37,3.28,1.36-.56l3.41-.08c-8.11-8.6-17.72-18.23-29.44-21.28-2.5-.65-2.25,3.51-1.17,4.65Z"/>
        <path class="cls-2" d="M.24,93.09c-2.43,26.65,13.67,54.16,39.68,62.6,4.69,1.52,5.47-8.31,1.53-9.8C19.14,137.49,5,118.22,5.49,94c.08-3.95-4.82-5.6-5.24-.95Z"/>
        <path class="cls-2" d="M65.69,37.91c1.11,24.78,9.52,45.87,26.17,64.36,3.72,4.13,6.36-6.21,3.37-9.48A101.05,101.05,0,0,1,69.58,37c-.4-3.42-4-2.1-3.89.9Z"/>
        <path class="cls-2" d="M159.82,2.51c-3.05,21.3-2.89,41.95,1.7,63.07,1.54,7.1,7.8,2.6,6.81-3.06a254.25,254.25,0,0,1-3.81-59.16c.22-3.6-4.11-4.93-4.7-.85Z"/>
        <path class="cls-2" d="M251.87,11.69c.65,18.34.78,35.28-4,53.19-1.35,5.06,4.59,13.39,6.89,5.83,5.92-19.52,8-41.44,1.9-61.14-1.25-4-4.9-.71-4.8,2.12Z"/>
        <path class="cls-2" d="M340.38,37c-4.56,19.07-12.7,37-25.19,52.14-3.43,4.16.2,15,4.85,9,13.58-17.48,22.29-37.4,24.76-59.43.41-3.62-3.34-6.24-4.42-1.73Z"/>
        <path class="cls-2" d="M416,81.12c-4.64,11.59-12.57,22.75-21.32,31.55-8.42,8.47-18.57,13.26-28.22,19.9-3.55,2.45-1.85,11.7,3.18,10.48,12.46-3,24.54-14.25,32.66-23.71,8.93-10.39,14-21.75,17.75-34.8.84-2.94-2.29-7.83-4.05-3.43Z"/>
        <path class="cls-3" d="M11.75,214.47c26.25-71.3,94.9-127.32,171-134.19,85.8-7.75,165,41.12,221.93,101.22,7.1,7.5,11.69-11.5,6.17-17.34C350.83,100.64,264.71,48.91,174.11,61,94,71.64,20.39,134.6,4,215.35c-1.06,5.19,4.93,6.9,7.79-.89Z"/>
        <path class="cls-3" d="M5,220.07c70.9,41,158.53,55.83,239.43,47.35,36.85-3.86,75.33-11.72,108.63-28.53,25.44-12.84,54.19-34.95,58.82-65.09.32-2.08-1.82-4.7-3.1-1.88-7.47,16.47-14.49,30-28.55,42-12.88,11-28,19.1-43.65,25.42-34.47,13.94-72.39,20.57-109.37,22.93-77.89,5-151.8-13.56-221.36-47.67C3.38,213.4,3,218.94,5,220.07Z"/>
        <g>
          <path class="cls-4" d="M248.71,119.2a107.5,107.5,0,0,0-54-11.61c-11.52.61-21.17,3.67-29.49,8.9-10.17,6.87-18.63,15.9-23.23,27.85-7.59,19.7-2.07,41.76,10.23,58.29C175.59,234,222,243.41,254.42,220.75,291.75,194.67,289.68,140.53,248.71,119.2Z"/>
          <path class="cls-3" d="M250.86,105.42c-32.44-16.71-82.12-21-110.45,20.39-9.1,13.31-12.27,31-10.63,46.14,4.13,38.06,34.57,68.81,72.15,74.77,37,5.87,75-16.68,86-52.94C298.36,159,283.08,122,250.86,105.42Zm3.56,115.34C222,243.41,175.59,234,152.25,202.63,139.95,186.1,134.43,164,142,144.34c4.6-11.94,13.06-21,23.23-27.85,8.32-5.23,18-8.29,29.49-8.9a107.5,107.5,0,0,1,54,11.61C289.68,140.53,291.75,194.67,254.42,220.75Z"/>
        </g>
        <path class="cls-3" d="M217.46,157c-.46-3-.95-5.73-3.58-7.8a8.93,8.93,0,0,0-5.91-2c-6.85.41-9.72,9.65-9.75,15.15,0,10.32,9.56,23,21,18s11.69-22.67,5.78-31.72c-6.15-9.43-19.46-8.3-25.17,1-7,11.36-2.07,34.76,14.38,34,11.14-.51,10.43-24.23-.61-24.95-.74,0-1-.28-.2,0-.21-.07-2.18-.94-1.19-.39s-.6-.56-.63-.57c-.91-.19.74.78.14.08q-.5-.77.09.19a4.6,4.6,0,0,1,.77,1.94,11.53,11.53,0,0,1-.3,5.66c-.22.58-.65,1.87-.17.59-.59,1.59-.46.07-.06.37-.12-.09-1.29.65.33-.06.17-.08,1.59-.51.71-.32s2.31.16,1.5,0c-1-.23.79.37,1,.47-.65-.33-.86-.55-.2.07a5.33,5.33,0,0,1-1.37-1.92c-.22-.53-.56-3.82-.55-2.8s.26-1.7.3-2c.15-1.34-.49.26.21-.61.09-.11,1.32-1.72.66-1-.47.48,1.08-.18-.28.2-.69.2-.83.11-.12.07a8.65,8.65,0,0,1-1.45,0c.8.09.45,0-.14-.14-2-.48.53.38-.45-.13-.6-.32-.69-1.06-.55-.38s.75,1.36.94,2a10.45,10.45,0,0,1-.08,5.93c0,.11-.78,1.88-1,1.77.16.1,3.5-3.77,1.87-2.12,0,0,1.36-1.17.66-.62q-.63.55.4-.22a3.73,3.73,0,0,0,1.21-1l-4.14.1.38.29c4.28,3.32,6-4,5.58-6.87Z"/>
        <path class="cls-2" d="M212.17,139.86c-20.76-5.14-24,37.1-3.61,41,21.78,4.18,27-39.48,5.13-42.43-24.71-3.32-30.21,42.42-5.77,47,25.43,4.78,31.29-42.7,7.15-49.42-13.81-3.85-21.74,8.32-22.85,20.48-.81,8.83,1.8,32,16.29,25.65,1.9-.83,1.78-5.59-.63-5.56-19.65.23-12.75-45.78,10.58-32,10.32,6.11,9.33,21,2.21,29.32-8.38,9.75-22.86,3.61-24.18-8.61-1-9,5.16-20.49,15.26-20.74,12-.29,14.25,15.36,9.48,23.48-6,10.22-18,7.85-21.88-2.63-3.75-10.1,2.55-20.35,12.63-22.67,1.08-.25,1.41-2.63.19-2.93Z"/>
        <path class="cls-1" d="M155.77,121.77c-17.46,21.21-24.53,57.59-8,81.31,18,25.79,52.83,39.63,83.35,31.77,31.36-8.08,53.56-36.81,50.88-69.46-2.61-31.78-28.8-52.43-58.55-58.44-32.18-6.5-75,4-81.72,41.19-.31,1.73,1.77,4.12,2.65,1.61,28-79.39,173.2-23.79,124.83,51.31-18.75,29.1-57.09,36.83-87.6,22.89-16.59-7.58-33.75-21.81-37.91-40.33-4.75-21.12,2.72-41.77,13.2-59.76.41-.7-.22-3.2-1.12-2.09Z"/>
      </g>
    </g>
  </g>
</svg>
