<svg xmlns="http://www.w3.org/2000/svg" viewBox="0 0 368.25 456.44">
  <defs>
    <style>
      .cls-1 {
        fill: #0f1110;
      }

      .cls-2 {
        fill: #101211;
      }

      .cls-3 {
        fill: #a13f96;
      }
    </style>
  </defs>
  <title>Ресурс 27</title>
  <g id="Слой_2" data-name="Слой 2">
    <g id="Слой_4" data-name="Слой 4">
      <g>
        <path class="cls-1" d="M324.54,174l5.44,33.4L366.88,220a2,2,0,0,1-.2,3.9L330,232.22l-8.3,43.35a2,2,0,0,1-4-.18l-4.07-40.69-32.27-10.47a2,2,0,0,1,0-3.86l32.27-10.47L320.55,174A2,2,0,0,1,324.54,174Z"/>
        <path class="cls-1" d="M194.26,105.64l22.29-7.59a1.07,1.07,0,0,0,.71-.82l4.9-26.64a1.07,1.07,0,0,1,2.11,0l6.38,25.44,23.85,9.8a1.29,1.29,0,0,1-.17,2.44l-23.63,6.12-8.48,32.17a1.07,1.07,0,0,1-2.12-.09l-2.89-30.37a1.07,1.07,0,0,0-.72-.91l-22.23-7.57A1.07,1.07,0,0,1,194.26,105.64Z"/>
        <path class="cls-2" d="M259.53,308.69l-22.29,7.59a1.07,1.07,0,0,0-.71.82l-4.9,26.64a1.07,1.07,0,0,1-2.11,0l-6.38-25.44-23.85-9.8a1.29,1.29,0,0,1,.17-2.44l23.63-6.12,8.48-32.17a1.07,1.07,0,0,1,2.12.09l2.89,30.37a1.07,1.07,0,0,0,.72.91l22.23,7.57A1.07,1.07,0,0,1,259.53,308.69Z"/>
        <path class="cls-2" d="M353.54,41.83l-22.29,7.59a1.07,1.07,0,0,0-.71.82l-4.9,26.64a1.07,1.07,0,0,1-2.11,0l-6.38-25.44-23.86-9.8a1.29,1.29,0,0,1,.17-2.44l23.63-6.12L325.59.88A1.07,1.07,0,0,1,327.7,1l2.89,30.37a1.07,1.07,0,0,0,.72.91l22.23,7.57A1.07,1.07,0,0,1,353.54,41.83Z"/>
        <path class="cls-1" d="M319.22,384.66l3.68,23.65,24.5,8.76a1.08,1.08,0,0,1-.11,2.07L322.9,425l-5.58,30.6a1.08,1.08,0,0,1-2.14-.09l-2.75-28.84L291,419.32a1.08,1.08,0,0,1,0-2l21.43-7.3,4.67-25.35A1.08,1.08,0,0,1,319.22,384.66Z"/>
        <path class="cls-3" d="M322.38,173.75l-.68,41.62a7.42,7.42,0,0,1-7.42,7.3H281.11a1,1,0,0,1-.32-1.88l32.41-11.33a1,1,0,0,0,.63-.73l6.63-35.17A1,1,0,0,1,322.38,173.75Z"/>
        <path class="cls-2" d="M149.68,330c-42.42-14.91-85.7-43.62-95-90.83-4.22-21.5,0-44.37,10.48-63.51,12.21-22.3,32-37.38,53.69-49.65a3.2,3.2,0,0,0,1.25-2.48h.22c1.4,0,3.28-3.45,1.35-3.75-49-7.64-98,27.59-114.5,72.55-8.6,23.46-9.68,49.84-2.29,73.77,8.79,28.45,28.28,48.4,55.27,60.48,26.21,11.73,57.46,18.31,85.58,9.83l.81.28C149.53,337.76,153.17,331.27,149.68,330Z"/>
      </g>
    </g>
  </g>
</svg>
