<svg xmlns="http://www.w3.org/2000/svg" viewBox="0 0 411.47 270.09">
  <defs>
    <style>
      .cls-1 {
        fill: #139a9c;
      }

      .cls-2 {
        fill: #121512;
      }

      .cls-3 {
        fill: #a13f97;
      }

      .cls-4 {
        fill: #101211;
      }
    </style>
  </defs>
  <title>Ресурс 20</title>
  <g id="Слой_2" data-name="Слой 2">
    <g id="Слой_4" data-name="Слой 4">
      <g>
        <path class="cls-1" d="M266.12,109.7c-6.4-14.36-18.23-24-31.93-28.71-24.85-10.92-57.77-4.9-77.36,13.17-24.85,22.92-26.73,62.71-3.69,87.47,22.36,24,60.33,28.78,88.13,11.39C268.79,175.81,279.35,139.39,266.12,109.7Z"/>
        <path d="M60.29,231.49c7.19-14,14.22-28,21.21-42.05.67-1.36-.81-4.54-1.78-2.57-7,14.16-14,28.35-20.83,42.6-.5,1,.59,3.59,1.4,2Z"/>
        <path d="M136.5,256.57c2.26-6.91,3.4-14.21,4.88-21.31.78-3.74,1.54-7.49,2.44-11.21.15-.61,1.21-3.07,1-3.66-.91-2.36-1.83.1-1.68,1.63.14,1.38,1.51,2,1.87.34.32-1.5.78-3.63-.13-5a1.07,1.07,0,0,0-1.27-.47c-2.87.67-3.85,12.74-4.28,14.88-1.61,7.89-3,15.83-4.66,23.7-.26,1.22,1.28,2.86,1.85,1.12Z"/>
        <path class="cls-2" d="M212.41,268.16a106.31,106.31,0,0,1-3.27-41.33c.3-2.41-2.57-4.16-2.93-1.15a95.74,95.74,0,0,0,4.41,43.69c.59,1.69,2.12,0,1.79-1.21Z"/>
        <path d="M304.75,255.66c-2-8.44-4.24-16.83-6.53-25.2-1.95-7.15-3.24-14.88-6.72-21.43-.56-1.06-1.57-.37-1.49.66,1.28,15.61,8.24,32.22,13,47.14.53,1.64,2,0,1.72-1.17Z"/>
        <path d="M368.8,217.79c-.84-9.76-6.47-24.5-16.75-27.93-1.7-.57-1.46,2.42-.79,3.15,3.37,3.69,7.34,6.37,10.11,10.68a36.46,36.46,0,0,1,5.32,14.59c.27,1.82,2.24,1.16,2.1-.49Z"/>
        <path class="cls-3" d="M2.54,146c63.71,43.7,138.35,85.13,218.17,78.18,65.11-5.67,147-22.06,187.59-78.39,1.87-2.59-.91-9-3.65-5.27-20.54,27.88-50.6,44.5-83,55.25-35,11.61-73.4,19.59-110.22,21.5-78,4-142.93-38.58-207.94-75.25-1.68-1-2.24,3.14-1,4Z"/>
        <path class="cls-4" d="M0,144.14C2.82,138.51,73.28,56.78,208.55,54s202.92,90.19,202.92,90.19S293.1,101.87,205.74,101.87C90.19,101.87,0,144.14,0,144.14Z"/>
        <path class="cls-2" d="M227.17,119.1c-6.07-5.52-17.47-8.46-26.39-6.62-10.39-.15-20.32,5.37-23.87,18.07-3.86,13.8,2.53,27.49,16.25,31.88,12.69,4.06,27.74,3.68,36.12-8C236.53,144.24,236.9,127.94,227.17,119.1Z"/>
        <path class="cls-2" d="M201.46,83.58c-.21,11.87-.82,23.84-.27,35.7.11,2.37,2.4,2.26,2.51-.06.55-11.86-.05-23.82-.27-35.69,0-1.86-1.94-1.79-2,0Z"/>
        <path class="cls-2" d="M169.57,98c3.53,4.47,7.16,8.85,10.87,13.18,3.24,3.78,6.34,8.23,10.32,11.25,1.42,1.08,1.66-1.73,1.19-2.51-2.89-4.82-7.19-8.92-10.9-13.12q-5-5.72-10.33-11.21c-1.07-1.12-1.77,1.62-1.15,2.41Z"/>
        <path class="cls-2" d="M149.59,128.4c10,1.89,22.19,4.34,32.3,3.22,1.47-.16,1.6-3.21.23-3.61-9.81-2.9-22.16-2.81-32.33-2.74-1.29,0-1.37,2.91-.2,3.13Z"/>
        <path class="cls-2" d="M155.89,169.78c6-2.8,12-5.66,17.91-8.74,5.34-2.79,11.13-5.29,15.56-9.43.56-.52.65-2.95-.55-2.7-5.74,1.18-10.88,4.7-16,7.53-6,3.31-11.77,6.83-17.57,10.4-1,.63-.79,3.59.61,2.94Z"/>
        <path class="cls-2" d="M190.35,185.95c2.7-9.75,5.26-20.42,6-30.51.09-1.3-1.42-3.47-2.16-1.31-3.29,9.53-4.92,20.41-6.17,30.38-.18,1.47,1.72,3.76,2.37,1.44Z"/>
        <path class="cls-2" d="M223.73,184.68c-1.39-9-3.34-18.38-6.72-26.83-.62-1.56-1.67.09-1.56,1.05a127.08,127.08,0,0,0,6.63,26.89c.58,1.64,1.81-.07,1.65-1.12Z"/>
        <path class="cls-2" d="M250.07,157c-4-2.66-8.33-4.93-12.35-7.64-3.47-2.35-6.83-5.83-10.76-7.3-1.68-.63-1.73,2.42-1.15,3.25,2.47,3.53,6.47,5.88,10.12,8.07a49.68,49.68,0,0,0,13.52,6.08c1.19.29,1.41-1.93.62-2.46Z"/>
        <path class="cls-2" d="M254.53,115.26c-9.26,2.65-20.74,5.36-28.55,11.19-.91.68-.77,3.58.7,3.46,9.53-.76,20.14-7.12,28.52-11.39,1.23-.63,1-3.73-.67-3.26Z"/>
        <path class="cls-2" d="M229.88,91.78c-4.62,8.56-10.5,17.28-13.53,26.55-.37,1.13.59,3.73,1.85,2.07,5.74-7.54,9.26-17.69,13.36-26.2.59-1.23-.66-4.31-1.68-2.43Z"/>
        <path class="cls-2" d="M43.4,112.57c-2.14-9.59-4.2-19.21-7.66-28.43-2.61-7-5.9-17.73-13-21.12-4-1.88-4.94,5.08-4.55,7.31C19.49,78,24.79,84.2,28.51,90.89c4.37,7.86,8.34,15.71,11,24.32C40.65,119,44,115.21,43.4,112.57Z"/>
        <path class="cls-2" d="M89.46,88.25a9.18,9.18,0,0,0-3.81,2.12c-.23.26-.3,1.14.23,1.13,1.4,0,2.75-1,3.88-1.79.47-.32.45-1.72-.3-1.45Z"/>
        <path class="cls-2" d="M128.09,70.08,127,67.75a2,2,0,0,0,.12-.79c-1-12.4-4.05-25-7.25-37-1.67-6.27-5-15.63-13.08-12.73-3.06,1.1-3.39,5.95-2.93,8.5,3,16.63,10.08,35.17,21.29,48C127.37,76.27,129,72,128.09,70.08Z"/>
        <path class="cls-2" d="M209.26.12c-7.33,1.26-7.78,12.5-7.57,18,.54,14,2.68,28.4,5.23,42.18.79,4.29,4.71,2.48,4.79-1.11,0-1.33,0-2.67.06-4a2.13,2.13,0,0,0,1.76-1.74C215.45,47,226.25-2.81,209.26.12Z"/>
        <path class="cls-2" d="M325.52,24.72c-9.58-1.47-13.69,9.75-15.92,17.08a167.72,167.72,0,0,0-4.92,21.32C303.82,65.05,303,67,302.25,69a5.24,5.24,0,0,0,.93,4.55q-.31,2.6-.58,5.21c-.39,3.86,3.9,6.83,4.77,1.87.31-1.74,1.08-6,2.22-11.13,9.21-9.58,15.09-22.91,19.91-34.89C330.91,31.07,329.75,25.36,325.52,24.72Z"/>
        <path class="cls-2" d="M407.36,74.53c-.87-1.92-2.78-3.37-4.71-1.75-7.85,6.59-14.78,13.93-19.88,22.41-4.91,5.52-9.37,11.49-11.63,18.58-.66,2.09,1.13,7.07,3.47,3.89.54-.74,1.06-1.48,1.58-2.23.65.61,1.55.64,2.15-.72,1-2.36,2.16-4.7,3.37-7a34.84,34.84,0,0,1,3.35-3.64c4.32-4,9.37-6.83,14.23-10.08C406,89.49,411.12,82.78,407.36,74.53Z"/>
      </g>
    </g>
  </g>
</svg>
