<svg xmlns="http://www.w3.org/2000/svg" viewBox="0 0 340.55 315.92">
  <defs>
    <style>
      .cls-1 {
        fill: #101211;
      }

      .cls-2 {
        fill: #f3cb29;
      }
    </style>
  </defs>
  <title>Ресурс 19</title>
  <g id="Слой_2" data-name="Слой 2">
    <g id="Слой_4" data-name="Слой 4">
      <g>
        <path class="cls-1" d="M334.74,164.39c6.52,23.84-.15,37.34-22.33,46.7-23.81,10-49.49,16.05-74.76,21.07-51.59,10.25-106,20.22-158.45,11.25-21.11-3.61-47.78-9.24-64.58-23.48-23.92-20.28-.18-56.34,17.92-72,37.95-32.79,98.19-40.22,146.36-42.09,53.8-2.08,134-.87,155.11,59.75,1.39,4,4.57-.57,3.6-3.37-20.42-58.59-91-63.26-144.24-63.16a392.77,392.77,0,0,0-98.28,12.61c-27.54,7.19-55.5,18.54-74.58,40.53-12.24,14.1-24.28,36.57-19.4,55.9s26.78,27.27,43.55,33c64.41,21.84,134.1,9.68,199-4,27.52-5.79,62.21-11.45,85.12-28.95,15.19-11.6,13.18-28.64,8-45.15C336.16,161.11,334.35,163,334.74,164.39Z"/>
        <path class="cls-1" d="M23.52,190.61l-1,.09c-.19,0-.18.41,0,.42l1,.09c.26,0,.26-.63,0-.61Z"/>
        <path class="cls-1" d="M336.51,195.52c4.25-11.53,6.54-30.31-2.43-40.37-1.56-1.75-2.65.77-2.39,2.23,1,5.91,3.57,11.33,4.28,17.36a61.09,61.09,0,0,1-.93,19.88c-.21,1,1,2.27,1.48.9Z"/>
        <path class="cls-2" d="M239.92,167.06c-2-31.9-42.86-38-73.72-33a105.6,105.6,0,0,0-31,5.91c-14.18,5.17-30.59,17.36-29.53,34.25,1.19,18.87,21.64,28.52,37.65,31.74C170.11,211.33,242.61,209.67,239.92,167.06Z"/>
        <path class="cls-1" d="M39.19,33.6c11.18,27.74,21,57.13,33.89,84,1.06,2.2,2.86.05,2.44-1.65C68.38,87.21,54.7,58.09,41.06,31.85c-1-2-2.44.33-1.87,1.75Z"/>
        <path class="cls-1" d="M136,1.48C135.47,22,137.32,42.63,139.47,63q1.27,12.07,2.88,24.11c.73,5.48.11,13,4,17.4.74.85,1.72,1,2.41-.06l.54-.83a3.08,3.08,0,0,0-.4-3.68l-.51-.39c-2-1.52-2.28,2.4-1.65,3.47l.38.65.58-3.94c3-1.75-5.48-47.21-5.88-51.44-1.45-15.61-2.15-31.28-3.7-46.87-.19-1.91-2-1.91-2.07.05Z"/>
        <path class="cls-1" d="M240.62,8.92c-6.92,29-12.16,62.16-13.09,92,0,1.49,2,3,2.49,1,3.81-15,5-30.76,7.05-46.05,2.12-15.45,4.77-31,5.49-46.54.07-1.55-1.56-2-1.95-.35Z"/>
        <path class="cls-1" d="M327.21,36.46C315.44,62,303,87.61,292.94,113.91c-.57,1.49,1.28,5.11,2.45,2.73,12.57-25.5,22.93-52.28,33.75-78.55.59-1.43-1-3.63-1.93-1.64Z"/>
        <path class="cls-1" d="M106.28,253.73c-6.61,16.24-11.51,33.91-16,50.84-.55,2.06,1.78,5.54,2.85,2.41,5.77-16.88,11.51-34.56,15.22-52,.29-1.35-1.27-3.06-2-1.23Z"/>
        <path class="cls-1" d="M157.42,251.51c-.71,20.67-.9,41.45-.44,62.13.07,3.11,3.24,3,3.3-.08.46-20.67.27-41.45-.44-62.11-.08-2.29-2.35-2.2-2.43.06Z"/>
        <path class="cls-1" d="M209.47,239.7c3.4,20.77,6.62,41.63,10.84,62.25.67,3.26,3.53,1.18,3.12-1.4-3.31-20.71-7.64-41.28-11.78-61.83-.46-2.29-2.48-.83-2.18,1Z"/>
        <path class="cls-1" d="M259.41,232.64c8.42,17.26,17.84,35.43,29,51.06,1.13,1.58,2.11-1,1.65-2-7.82-17.62-18.3-35.13-28.82-51.27-1.14-1.75-2.39,1.09-1.82,2.25Z"/>
        <path class="cls-1" d="M191.22,162.47c-7-8.87-21.95-7.59-28.46,1.13A14.74,14.74,0,0,0,158.3,178c3.08,11.58,18.42,14.61,28.11,10C196.32,183.36,197.72,170.72,191.22,162.47ZM188,180.84c-5.51,4.48-14.85,4.72-20.92,1.31-4.12-2.32-6.79-6.47-5.23-11.26a11,11,0,0,1,.85-1.92,1.3,1.3,0,0,0,.37-.15c3.08-1.84,6.05-3.9,9.24-5.2l.28,0a.55.55,0,0,0,.64-.39,14.74,14.74,0,0,1,8.51-.57C189.49,164.47,195.35,174.91,188,180.84Z"/>
      </g>
    </g>
  </g>
</svg>
