<svg xmlns="http://www.w3.org/2000/svg" viewBox="0 0 84.89 92.26">
  <defs>
    <style>
      .cls-1 {
        fill: #f3cb29;
      }
    </style>
  </defs>
  <title>Ресурс 7</title>
  <g id="Слой_2" data-name="Слой 2">
    <g id="Слой_4" data-name="Слой 4">
      <path class="cls-1" d="M50.53,50.08C51.33,45.5,57.44,45,61,46.25c6.5,2.31,5.54,9.53,1.41,13.8-8.41,8.69-21,4.23-26.91-4.83S31,34.56,40.33,28.4c8.43-5.55,20.28-5.5,28.92-.46,10.25,6,14.08,18.62,12.18,29.83-2,12.07-10.37,21.71-21.53,26.41a42.35,42.35,0,0,1-33.15,0C15.93,79.35,8,69.27,4.85,58a40.24,40.24,0,0,1,8.07-37.4C22.09,9.91,35.26,4.17,49.16,3.3c1.41-.09,1.29-3-.08-3.12C34.6-1.25,19.83,6,10.64,17A46.21,46.21,0,0,0,1,56.24c2.81,13.5,11.32,26,23.94,32,12.29,5.87,27.52,5.15,39.43-1.33A39.36,39.36,0,0,0,84.87,53.46C85.34,40.44,79,27,66.46,22c-10.95-4.34-25.06-2.17-32.68,7.29C26,38.87,28.27,53,36.28,61.72c3.75,4.11,8.9,7,14.55,7.21a17.73,17.73,0,0,0,16.06-9.75c2.44-4.89,2.26-11.79-2.5-15.23-3.64-2.63-9.36-3-13-.23a7.84,7.84,0,0,0-3,5.54c-.19,1.73,1.74,3,2.13.83Z"/>
    </g>
  </g>
</svg>
