<svg xmlns="http://www.w3.org/2000/svg" viewBox="0 0 403.37 300.29">
  <defs>
    <style>
      .cls-1 {
        fill: #f3cb29;
      }

      .cls-2 {
        fill: #c0c9d1;
      }

      .cls-3 {
        fill: #101211;
      }

      .cls-4 {
        fill: #ba388a;
      }

      .cls-5 {
        fill: #139a9c;
      }

      .cls-6 {
        fill: #fff;
      }
    </style>
  </defs>
  <title>Ресурс 24</title>
  <g id="Слой_2" data-name="Слой 2">
    <g id="Слой_4" data-name="Слой 4">
      <g>
        <path class="cls-1" d="M0,194.67C0,192.93,33.56,35,177,35S403.27,197.56,403.27,197.56s-99.51-107-195.56-112.24S92,103.83,59.59,128.13,0,194.67,0,194.67Z"/>
        <g>
          <path class="cls-2" d="M293.35,118.8c-35.82-18.35-72.65-32.59-113.49-31.42-71.37,2-141.37,43-173.39,107.45,46.91,48.28,122.87,57.58,187.18,56.76a433.69,433.69,0,0,0,109.76-15.68c33.66-9.29,64.52-23.7,95.88-38.64C370.57,163.44,332.53,138.87,293.35,118.8Z"/>
          <path class="cls-3" d="M402.08,196.07a1.61,1.61,0,0,0-.27-.55c-28.64-36.56-66.58-61.87-107.47-83-37.53-19.41-76.06-33.88-118.87-32C102,83.65,32.3,127.21.72,194c-1,2.14.36,5.06,2,5.4C44.28,249.6,125,258.77,185.85,259.05c73.71.34,154.66-17.38,216.65-58.7C403.77,199.5,403.65,195.92,402.08,196.07ZM193.65,251.59c-64.32.82-140.27-8.48-187.18-56.76,32-64.49,102-105.42,173.39-107.45,40.84-1.17,77.68,13.08,113.49,31.42,39.18,20.07,77.21,44.64,105.95,78.47-31.36,14.95-62.22,29.35-95.88,38.64A433.69,433.69,0,0,1,193.65,251.59Z"/>
        </g>
        <g>
          <path class="cls-4" d="M245.11,146.38a61.58,61.58,0,0,0-44.38-32.92,63.44,63.44,0,0,0-10.73-.92c-17.2,0-33.37,7.06-43.07,19.31-.63.79-1.21,1.6-1.76,2.4l-.19.25c-17,20.08-14,56.7,6.26,76.83,12.34,12.27,30.32,17.54,49.35,14.48,19.76-3.19,36.46-14.77,44.67-31C253.1,179.36,253,162.16,245.11,146.38Z"/>
          <path class="cls-5" d="M250.67,143.59a67.81,67.81,0,0,0-48.88-36.26c-23.53-4-46.42,3.86-59.72,20.65-.69.86-1.32,1.74-1.93,2.63-18.8,22.4-15.61,62.92,6.73,85.12,11.22,11.16,26.55,17.14,43.21,17.14a72.56,72.56,0,0,0,11.51-.93c21.71-3.5,40.12-16.33,49.22-34.31C259.56,180.37,259.5,161.17,250.67,143.59ZM200.6,225.8c-19,3.05-37-2.21-49.35-14.48C131,191.2,128,154.58,145,134.5l.19-.25c.55-.81,1.13-1.61,1.76-2.4,9.71-12.25,25.88-19.31,43.07-19.31a63.44,63.44,0,0,1,10.73.92,61.58,61.58,0,0,1,44.38,32.92c7.93,15.78,8,33,.16,48.44C237.06,211,220.36,222.62,200.6,225.8Z"/>
        </g>
        <path class="cls-6" d="M222.68,165.21c-1.43-18.56-20.3-36.1-39.22-26.46-8.25,4.2-14.72,15.83-15.82,26.86a28.28,28.28,0,0,0-.43,3.9c-.61,16.38,11.44,31.8,28.62,31.56C214.09,200.81,223.94,181.48,222.68,165.21Zm-26,7.58a10.82,10.82,0,0,0-1.51-1.6L195,171a10.6,10.6,0,0,1,4.77.49A4.24,4.24,0,0,1,196.72,172.79Z"/>
        <path class="cls-3" d="M188.22,155.34c-1.6,10.77-2.37,24.53,1.38,34.86,1,2.86,4,2.53,5-.12,3.83-10.26,2.77-24.22,1.2-34.92-.82-5.61-6.81-5.15-7.6.19Z"/>
        <path class="cls-3" d="M8.29,105.23c7.55,14,15.54,27.74,23.63,41.41,1.62,2.74,3.46-1.94,2.37-3.81C26.43,129.24,18.45,115.68,10,102.42c-1.3-2.05-2.46,1.49-1.75,2.81Z"/>
        <path class="cls-3" d="M49.45,57.85c4.18,19.5,11.47,41.53,21.9,58.56,1.58,2.59,2.93-1.65,2.47-3.06-6.17-19-14.4-38.56-22.13-57-.89-2.12-2.56,0-2.24,1.52Z"/>
        <path class="cls-3" d="M120.08,17.12a197,197,0,0,0,11.31,71.82c1.13,3.12,3.7,0,3.24-2.2-5-23.48-8.94-46.35-12.5-70.1-.28-1.87-2-1-2,.47Z"/>
        <path class="cls-3" d="M194.23,1.56c-.93,26.14-1.08,53.72,1.84,79.72.36,3.17,3.26,3.15,3.42-.08,1.32-26.14-.54-53.65-3.08-79.69-.2-2-2.12-2-2.19.05Z"/>
        <path class="cls-3" d="M278,27c-5.85,23.46-13.68,45.78-20.62,68.83-.39,1.31,1.08,4.92,2.32,2.59,11.13-21,17.37-47.11,20.35-70.62.22-1.7-1.54-2.88-2.06-.8Z"/>
        <path class="cls-3" d="M336.93,68c-7.23,18.63-18.1,33.8-28.35,50.64-.67,1.1-.49,3.42,1.07,3.6l.31,0c1.77.2,1.22-3,.57-3.72l-.27-.29q0,1.83.09,3.67c13.93-13.61,22.58-34,28.59-52.24.49-1.48-1.17-3.84-2-1.7Z"/>
        <path class="cls-3" d="M384.82,106a148.33,148.33,0,0,1-34.47,42.06c-1.73,1.46-.31,6.63,1.94,4.69a134.33,134.33,0,0,0,34.05-44.56c.53-1.1-.59-3.9-1.52-2.19Z"/>
        <g>
          <path class="cls-3" d="M249.62,274.94c-7-3.95-12.86,4.21-11.55,10.75,1.36,6.8,10.28,10.66,14,3.36a9.06,9.06,0,0,0,.62-1.61C255.07,283.48,253.91,277.35,249.62,274.94Z"/>
          <path class="cls-3" d="M138.21,275.83a11.75,11.75,0,0,0-4,12.79c1.31,4.12,5.36,7.5,9.85,7.08a8.76,8.76,0,0,0,7.3-6.15,11,11,0,0,0-1.23-12.49A9.09,9.09,0,0,0,138.21,275.83Z"/>
          <path class="cls-3" d="M197.11,276.13a8.49,8.49,0,0,0-5.84,2.13c-7.25,2.92-8.05,13.39-2.83,18.71,6.2,6.32,16,3,18.8-4.93C209.71,285,205.07,276.27,197.11,276.13Z"/>
          <path class="cls-3" d="M91.63,267.16c-2.94.63-4.71,3.21-5.29,6-1.15,5.58,2.88,13.34,9.51,10.91a6.46,6.46,0,0,0,3.95-4.42,7.57,7.57,0,0,0,.57-1.09,8.53,8.53,0,0,0-1.49-8.95A7.83,7.83,0,0,0,91.63,267.16Z"/>
          <path class="cls-3" d="M292,263.13a7.55,7.55,0,0,0-6.12,7.31c-.87,3-.11,6.78,2.65,8.68a7.46,7.46,0,0,0,8.58-.35c3.16-2.39,3.72-7,2.47-10.54C298.5,265,295.56,262.53,292,263.13Z"/>
          <path class="cls-3" d="M336.79,245.52c-4.94.09-6.93,5.83-5.69,10a5.14,5.14,0,0,0,2.79,4.46c4.17,2,9.16-1.12,10-5.43S341.52,245.44,336.79,245.52Z"/>
          <path class="cls-3" d="M44.83,250.56a7.54,7.54,0,0,0-2.63,6.05c-.36,3.56,1.88,7.53,5.53,8.17,5.12.89,8.59-4.62,7.72-9.19C54.54,250.84,49.09,247.19,44.83,250.56Z"/>
        </g>
      </g>
    </g>
  </g>
</svg>
