<svg xmlns="http://www.w3.org/2000/svg" viewBox="0 0 486.86 405.43">
  <defs>
    <style>
      .cls-1 {
        fill: #f7cf2b;
      }

      .cls-2 {
        fill: #139a9c;
      }

      .cls-3 {
        fill: #f1cc28;
      }

      .cls-4 {
        fill: #a13f97;
      }

      .cls-5 {
        fill: #fff;
      }

      .cls-6 {
        fill: #f2ca2a;
      }

      .cls-7 {
        fill: #0f1110;
      }
    </style>
  </defs>
  <title>Ресурс 30</title>
  <g id="Слой_2" data-name="Слой 2">
    <g id="Слой_4" data-name="Слой 4">
      <g>
        <path class="cls-1" d="M71.57,129.83l35.8-19.47s61.08,32.1,63.16,79.72-13.46,76.62-25.88,90.08S122.9,306,122.9,306L88.73,290.51s30-13.46,38.31-54.87-10.35-74.54-19.67-82.83S71.57,129.83,71.57,129.83Z"/>
        <path class="cls-2" d="M107.08,112.22c14.07,6.09,27.65,21.13,37.72,32.56,14.05,16,22.59,35.47,23.94,56.82,2.38,37.44-16.58,71-43.79,95.34-2.21,2-.38,8.83,2.57,6.22,30.36-26.83,50.07-65.55,45.53-106.76a100.51,100.51,0,0,0-22-53.16c-10.36-12.62-26.76-31.23-43.35-34.74-1.88-.4-2,3.1-.58,3.73Z"/>
        <path class="cls-2" d="M367.92,142.86c34.36,15.6,83.8-6.48,92.05-44.34.22-1-1.1-3.29-2-1.65-18.19,35-50.2,53.52-89.83,44.31-.84-.2-.9,1.38-.26,1.67Z"/>
        <path class="cls-2" d="M439.79,193.08c19.73,3.18,42.12-17.54,47-35.46.29-1.08-.74-4.1-1.95-2.18-5.24,8.4-10.41,16.25-18.45,22.31-8.36,6.29-17.64,8.12-27,12.12-1.23.52-.93,3,.36,3.21Z"/>
        <path class="cls-3" d="M6.34,237c-9.65-49,19.31-99.36,54-132.3C91.72,75,132.41,56.62,174.48,48c80.63-16.56,167.63,1.59,236.22,46.72,3.11,2,4.42-4.36,2.12-5.95-73.56-50.58-173-66.51-258.66-42.28-43.67,12.35-83.92,35.91-112.9,71.21C15.28,149.34-9.17,196.6,3.4,238.37c.9,3,3.43,1.16,2.95-1.32Z"/>
        <path class="cls-2" d="M126.3,99.24c37-14.59,73.51-55.16,70.81-97.51C197,.53,195.41-1,194.92.89c-5.16,19.89-8.47,37.69-20.5,55.07a122.25,122.25,0,0,1-48.6,40.93c-.92.43-.63,2.8.49,2.36Z"/>
        <path class="cls-2" d="M201.27,87.91C235.59,76.45,262.86,41.12,265.4,5c.13-1.82-1.75-3.26-2.27-.89C255,41.52,234.86,68,200.77,85.5c-.91.46-.7,2.82.5,2.42Z"/>
        <path class="cls-2" d="M262.6,97.65c40-3.13,79.88-41.41,74.24-83.94-.18-1.37-1.73-1.29-1.88,0C332.54,34.86,327.6,53,312.76,69A84.76,84.76,0,0,1,262.54,95.5c-.94.13-.9,2.23.05,2.15Z"/>
        <path class="cls-2" d="M309.18,111.08c46,11,101.13-19.22,113.6-65.84.42-1.57-1.12-4.19-2.18-1.85-20.2,44.72-61.68,70.75-111.25,65.06-1.07-.12-1.13,2.4-.17,2.63Z"/>
        <path class="cls-4" d="M129.11,203.54c0,28-7.25,53.84-23.81,70.4L88.73,290.51s-55.91-21.74-77.65-46.59L3.84,231.49s8.28-38.31,21.74-58S67,129,76.31,124.34c0,0,30,23.29,38.31,38.83S129.11,203.54,129.11,203.54Z"/>
        <path d="M5,240.92c58.75,59.21,153.92,84.32,235.08,73.56,76.24-10.1,158.68-54,200.42-120.51,1.13-1.8-.51-8-2.83-5.27-26.53,30.94-52.43,58.54-87.92,79.58A293.9,293.9,0,0,1,237.5,307.21a289.85,289.85,0,0,1-122.86-11.37c-40.7-12.77-74.2-34.61-107.72-60.31-2.78-2.13-3.55,3.75-1.92,5.39Z"/>
        <path d="M77.85,123.85,76.3,124c-.33,0-.3.7,0,.73l1.56.12c.42,0,.41-1,0-1Z"/>
        <path d="M71.62,131.83c1.77,0,1.69-4-.1-4s-1.69,4,.1,4Z"/>
        <path d="M91.65,291.56c28.83-17.11,42.83-55.81,39.34-88-3.19-29.42-25.43-70.73-57.1-77.33-2.39-.5-2.67,3.67-1.2,4.8,10.73,8.26,22,14,31.14,24.35,10.69,12.17,18.58,27.16,21.46,43.19,6.43,35.84-10.23,65-34.74,89.38-.86.86-.57,4.62,1.1,3.63Z"/>
        <path d="M32.83,172.55c.07,0,.06-.15,0-.15s-.06.15,0,.15Z"/>
        <path d="M32.83,172.52s0-.08,0-.08,0,.08,0,.08Z"/>
        <path d="M25.07,180.93c18,2.54,31.9,16.45,38,33.24,7.47,20.51.4,37.77-10.3,55.09-.91,1.47.12,6.56,2.38,4.42,15-14.24,19-38.78,13.5-58.19-5.15-18.21-22.31-42.1-43.71-39.41-2.2.28-2,4.55.12,4.85Z"/>
        <path d="M12.12,234.64s0-.08,0-.08,0,.08,0,.08Z"/>
        <path d="M6.3,238.26C17,144.54,110.55,94.83,197.4,95.12c90.14.31,174.74,40.06,241.14,99.28,3,2.68,4.63-4.52,2.34-6.58C369.95,123.93,275,81.68,178.16,88.24c-78.73,5.34-175,60.17-174.75,149.5,0,2.16,2.59,3.1,2.89.52Z"/>
        <path d="M29.81,211.1c1.33,9.52,4.8,16.42,11.16,23.5,2.28,2.54,4.41-1.5,4.82-3.15,3-12.34-.38-23.49-9.29-32.39-3.53-3.53-5.25,4-5,6.09a47.76,47.76,0,0,0,14.86,29c2.39,2.31,5-1.17,5.2-3.4,1-14.1-2.78-25.59-13.23-35.41-2.64-2.48-4.88,1.33-5.32,3.48C30.75,210,32.81,220,39.51,229.32c2.95,4.07,6.39-.78,6.22-4.14-.52-10-3.38-29.29-16.13-29.79a3.2,3.2,0,0,0-2.5,1.67c-4.07,8.28-2.89,16,.59,24.43,1.72,4.16,5.87,2.4,6.42-1.44a55.6,55.6,0,0,0-1.26-23.58c-.76-2.87-3.59-5.48-5.85-2.19-5.54,8.08-6.84,16.26-4.47,25.72.81,3.23,5.09,5.6,6.25,1.09A72.21,72.21,0,0,0,31.08,196c-.22-2.75-3.34-7.56-5.79-3.45a55.58,55.58,0,0,0-8,27.05c-.26,5.06,5.23,6.51,6.4,1.16q2.76-12.64,5.64-25.24c.69-3-2.85-9.08-5.51-4.65A116.94,116.94,0,0,0,10.88,221l5.61,4.75c2.48-9.68,4.88-19.39,7.54-29,.71-2.57-1.81-9.76-4.62-5.17C12.82,202.3,6.79,215.37,6.26,228.19c-.5,12.23,8.78,15.69,18.12,22.11,5,3.44,6.08-5.9,4.17-8.76A67.24,67.24,0,0,0,12,224.06l-3.44,9.65L31.06,250c4.49,3.24,6.12-4.85,4.81-7.74a58,58,0,0,0-18-23c-5.14-4-6.14,6.78-3.47,9.75,6.5,7.24,13.27,14.08,20.45,20.65,4.41,4,6.4-6.11,4.26-8.95L22.93,219.25l-4.28,9Q28.89,237.14,39.16,246c4.82,4.17,5.91-6.28,4.28-9L28.31,212l-4.24,8.91,17.65,19.69c3.68,4.11,6.07-5.2,4.81-7.74l-8.81-17.75L32.18,222c3.59,6.22,12.5,10.18,3.08,15-3,1.52-3.29,6.76-1.36,9.2a23.22,23.22,0,0,1,5.53,9.78l4.72-7.59a110.57,110.57,0,0,0-22.64-13.72c-4.75-2.16-5.29,7.9-2.52,10.06l17.27,13.47c4.51,3.52,6.59-5.94,4.14-8.71a51.74,51.74,0,0,0-20.34-14.69c-5.15-2.11-4.84,7.86-2.53,10.09a148.14,148.14,0,0,0,27,20.57c2.94,1.77,4.52-3.74,4.44-5.41a70.89,70.89,0,0,1,4.3-28.5l-6.72-4.08a251,251,0,0,1-4,30.25c-.87,4.42,4.26,10.22,6.67,4.05q4.34-11.1,8.65-22.22l-6.47-3.93A210.07,210.07,0,0,1,47,262.7c-.73,3.23,2.88,9.49,5.84,4.92a58.41,58.41,0,0,0,8.27-20c1.25-5.52-5.14-9.33-6.69-2.62l-3.64,15.75c-.73,3.17,3.09,9.74,5.89,5a64.24,64.24,0,0,0,9.13-35.42l-7,.17a42.07,42.07,0,0,1-1,14.77c-1,5.63,5.44,9.6,6.82,2.67,3.81-19.1,5.76-40.22-11.1-53.64-4.79-3.81-5.7,6-4.1,8.61a33.58,33.58,0,0,1,5.84,23.84l6.52-1.47a101.37,101.37,0,0,0-14.33-29c-3.78-5.38-6.82,3.44-5.5,6.79,4.62,11.7,8.89,23.16,10.11,35.8l6.7-3a182.24,182.24,0,0,1-10.92-27.19l-6.17,5.77a288.47,288.47,0,0,1,9.22,29.06c1.9,7.34,7.78,2.6,7-3.15a136,136,0,0,0-18.6-53L36,196.76a53.16,53.16,0,0,1,15,10.17l3.36-9.44a170.17,170.17,0,0,1-19.46-15.67l-2.47,9.86A12.88,12.88,0,0,1,40,196.79l3.39-9.52c-8.79-6.09-25.28-9.82-25.66,6.28-.28,11.65,10.74,13.52,18.12,6.79,2.74-2.5,2-7.37-.24-9.85l-3.67-4-3.54,9.94c4.13,4,8,8,11.77,12.28,4.56,5.22,8.29-4.54,5.09-8.19-4.26-4.87-8.66-9.54-13.33-14-4.47-4.3-6.5,6.74-3.54,9.94l3.67,4q-.12-4.92-.24-9.84l8.17,6.2c5.27,3.51,6.16-6.62,3.39-9.52a21.35,21.35,0,0,0-9.33-6c-5.05-1.77-4.93,7.63-2.47,9.86A219.09,219.09,0,0,0,51,206.93c5,3.59,6.29-6.58,3.36-9.44A59.51,59.51,0,0,0,37.7,185.94c-4.92-2.35-4.59,7.28-3.34,9.42a127.07,127.07,0,0,1,16.59,48.12l7-3.15a313.77,313.77,0,0,0-10.06-31.68c-2.63-7-7.61,1.15-6.17,5.77a182,182,0,0,0,11,27.16c2.43,4.86,7.14,1.61,6.7-3C58,224,53.48,210.87,48.1,197.3l-5.5,6.79a93.25,93.25,0,0,1,13.18,26.81c1.35,4.35,6.22,2.35,6.52-1.46,1-12.76-1.28-23.34-8-34.35l-4.1,8.61c13.27,10.5,10.53,26.85,7.64,41.54l6.82,2.67a75.77,75.77,0,0,0,1.13-17.61c-.31-6.49-7.14-6.39-7,.17a49.45,49.45,0,0,1-7.23,27.94l5.89,5,3.61-15.76L54.43,245a35.83,35.83,0,0,1-6.59,15.38l5.84,4.92a244.92,244.92,0,0,0,4.47-27.09c.45-4.12-4-10.1-6.47-3.93q-4.44,11-8.84,22.06l6.67,4.05a235.4,235.4,0,0,0,4.1-30.23c.29-4.06-4.31-10.73-6.72-4.08a85.08,85.08,0,0,0-5.14,34.09l4.44-5.41a139.71,139.71,0,0,1-25.27-19.48L18.4,245.37A43.6,43.6,0,0,1,35.5,257.31l4.15-8.71L22.38,235.15l-2.52,10.06a101.8,101.8,0,0,1,20.9,12.66c4.45,3.48,5.7-5,4.72-7.59a41.63,41.63,0,0,0-6.69-12l-1.36,9.2c7.2-3.65,12.65-1.13,13-11.82C50.7,225.37,41.71,222,37.12,214c-3.1-5.39-7.32,3.25-5.54,6.85l8.77,17.79,5.57-6.89L28.31,212c-4.75-5.33-7.27,4.3-5,8.06l15.09,25.09,4.28-9q-10.25-8.91-20.51-17.8c-4.57-4-6.44,6.15-4.28,9L34.11,248.8l4.26-8.95c-7.18-6.55-14-13.37-20.47-20.59L14.43,229A47.32,47.32,0,0,1,29.7,248l4.81-7.74L12,224.06c-4.88-3.51-7.09,7-3.44,9.65a61.16,61.16,0,0,1,15.08,15.74l4.17-8.76C21.24,236.2,13.9,234.07,13.94,225c0-8.6,5.89-20,9.66-27.37L19,192.47c-2.56,9.56-5.36,19-8.09,28.55-1.21,4.2,3.8,10.84,5.61,4.75a126.16,126.16,0,0,1,12.06-28L23,193.07q-2.75,12.64-5.66,25.23l6.4,1.16a35.34,35.34,0,0,1,6.42-19.82l-5.79-3.46A45.56,45.56,0,0,1,22.77,216L29,217.08l3.06-15.46-5.85-2.19a32.83,32.83,0,0,1,1,17.92l6.42-1.44q7.14,1.29,4.68,9.45l6.22-4.14a20,20,0,0,1-4.34-19.58l-5.32,3.48q10.45,8.44,9.71,22.9l5.2-3.4a36.07,36.07,0,0,1-11.63-22.43l-5,6.09q9.65,8.69,6.09,20.64l4.81-3.15a25.86,25.86,0,0,1-8.45-17.29c-1-6.16-6.53-2.21-5.85,2.63Z"/>
        <path d="M25.12,179.42a40.71,40.71,0,0,0-2.75,10.66c-.1,1.44,0,3.33,1.27,4.32a2,2,0,0,0,3-.68c2-3,2.83-6.37,3.77-9.78.57-2,.55-4.8-1.24-6.28s-3.49,0-4.1,1.76Z"/>
        <path d="M29.16,182.2c1.62,3.13,3.19,6.09,5.74,8.57a1.61,1.61,0,0,0,2.47-.55,4.47,4.47,0,0,0,.23-3.79,35.57,35.57,0,0,0-4.73-8.81,1.9,1.9,0,0,0-3.2-.21,4.84,4.84,0,0,0-.51,4.79Z"/>
        <path d="M70,156c-14.58,7-26.65,21.71-35.42,34.9-1.14,1.72.72,5.9,2.37,3.42a141.71,141.71,0,0,1,16-20c5.57-5.78,12-10.47,17.8-16,.59-.56.44-2.92-.72-2.37Z"/>
        <path d="M88.5,174.34c-12.7,5.84-26.16,13.68-34.73,25-.56.74,0,2.88,1.11,2.07C66.41,193.22,76.46,183.79,89,177c1-.53.68-3.21-.55-2.65Z"/>
        <path d="M102.22,202.94c-14.75,3.46-32.17,7.68-44.94,16.06-.71.47-1,3,.31,2.76C72.8,218.52,88,210.94,102.86,206c1.27-.42.88-3.41-.63-3.06Z"/>
        <path d="M102.64,232.83c-13.75.81-26.89-.71-40.45-2.73-1.45-.22-1.46,3.14-.23,3.52,13.18,4.12,27.19,4.29,40.75,2.21,1.3-.2,1.27-3.08-.07-3Z"/>
        <path d="M90.62,263.65A80.8,80.8,0,0,1,56.48,244.1c-1.33-1.25-2.11,1.91-1.34,2.82a57.64,57.64,0,0,0,35.3,19.63c1.18.17,1.22-2.6.19-2.9Z"/>
        <path d="M34,188.46c6,2.74,11.62,5.11,17.31,8.48,1.49.88,1.78-2.3,1.44-3A25.84,25.84,0,0,0,44,183.13c-1.82-1.3-2.46,2.48-1.25,3.52C49.49,192.39,54,199.08,59.25,206c1.38,1.8,2.46-1.17,1.93-2.38-3.52-8.08-10.33-15-17.13-20.47l-1.25,3.52A22.43,22.43,0,0,1,50.51,196l1.77-2.84c-5-4-11.65-7.37-18-8-1.46-.14-1.22,2.79-.21,3.25Z"/>
        <path class="cls-5" d="M34.14,197.93c-3-1.32-5.57.35-7.31,2.79-2.26,3.18-2.76,7.61-2,11.34s2.54,6.95,5.87,8.73c2.6,1.39,5.53.7,7.83-.86,3.07-2.08,4.69-5.67,5.21-9.26.64-4.46-.57-10.39-4.17-13.49a6.89,6.89,0,0,0-9.59.16c-4.67,4.48-4.58,13.5,0,17.91,2.2,2.13,5.7.91,7-1.56a9,9,0,0,0,1.2-2.61q.62-1.92-1.47,2.19-1.53.86-.51.44l-1.63.38a3.12,3.12,0,0,1,1.14,0l-1.64-.29.37.12a2.88,2.88,0,0,1-1.62-1.72c-1.32-2-.88-1.33-.59-.68s.2.18-.37-1.4q0-2-.09-3.95l.42-1.57q-.31.82.18-.31c.77-1.64-.53.41.48-.8s-.14,0-.14.05c0-.23,1.42-.69.54-.37a9.78,9.78,0,0,1-1,.35l1.6-.37a4.43,4.43,0,0,1-1,0l1.6.29a7,7,0,0,0-1-.3q1.41,1,.83.46t.74.84q1,2,.61,1.15T36,207c0-.1-.21-.84-.15-.9l.2,1.72q0-1.29-.09,1.34l-.36,1.38q.36-1-.43.77c.29-.39,1.52-2.15.33-.8,2.84-3.21,3.2-10.6-1.39-12.61Z"/>
        <path class="cls-5" d="M42.8,242c1.4,2.76,4.07,6.53,7.65,5s3.69-7.27,2.47-10.24c-1.41-3.42-4.29-5.11-7.85-4.16-1.5.4-2.29,2.45-2.62,3.75A8.5,8.5,0,0,0,42.8,242Z"/>
        <path d="M436.62,188.31c.27,0,.26-.61,0-.61s-.26.61,0,.61Z"/>
        <path class="cls-2" d="M189.58,352.57c9.25,2.63,18.74,2.33,28.29,2.43,10.72.11,21.86,1.06,32.45-.56,3.71-.57,3.39-7.67-.2-8.22-10.57-1.6-21.78-.67-32.48-.56-9.52.1-19-.18-28.17,2.45-1.55.44-1.38,4,.11,4.45Z"/>
        <path class="cls-2" d="M188.79,351.15c1.94,8.65,7.34,16,11.82,23.51,5.54,9.31,11.14,18.59,16.9,27.76,2.92,4.65,6-3.36,4.06-6.53-9.68-16-19.91-31.61-30-47.33-1.51-2.35-3.11,1.1-2.78,2.58Z"/>
        <path class="cls-2" d="M221.16,404.93c14.46-13.93,25-32.33,35-49.59,1.36-2.37,1.16-6.38-1.54-7.75l-1.91-1a2.31,2.31,0,0,0-2.37.53l-1.62,1.25c-1.48,1.14-1.33,4.53.14,5.62a19.53,19.53,0,0,0,4.35,2.57l-1.54-7.75c-10,17.89-22.4,34.22-32.74,51.88-.8,1.38.1,6.26,2.25,4.19Z"/>
        <path class="cls-2" d="M146.17,339.33c-9.1-2-15.28,9.76-11.2,17.17.73,3.29,2.6,6.38,5.18,7.8,5.74,3.14,12-.76,13.91-6.5C156.17,351.38,153.72,341,146.17,339.33Z"/>
        <path class="cls-2" d="M299.49,326.89c-13.84-1.09-17.67,21.09-5.08,25.73a11.11,11.11,0,0,0,4,.71,6.59,6.59,0,0,0,5.22-.22C314.56,348.07,311.82,327.86,299.49,326.89Z"/>
        <path class="cls-6" d="M312.78,154.64a96.36,96.36,0,0,1,15.55,50.88c.16,17.57-7.09,32.15-12.81,48.26-.89,2.51.82,10.15,4.69,6.78,14.7-12.82,18.35-36.72,18.11-55.28-.28-21.33-7.29-41.4-21.2-57.6-4-4.64-6.41,3.72-4.34,7Z"/>
        <path class="cls-6" d="M351.53,166.81a99.3,99.3,0,0,1,8.39,37.67c.21,12.11-3.24,23.1-4.3,35-.33,3.69,3.07,11.55,7,5.91,16.34-23.42,8.06-61.71-4.3-84.94-3.81-7.16-9,1.17-6.79,6.35Z"/>
        <path class="cls-7" d="M166.38,130.55c10,0,10-15.53,0-15.53s-10,15.53,0,15.53Z"/>
        <path class="cls-7" d="M194.34,167.82c10,0,10-15.53,0-15.53s-10,15.53,0,15.53Z"/>
        <path class="cls-7" d="M200.55,223.73c10,0,10-15.53,0-15.53s-10,15.53,0,15.53Z"/>
        <path class="cls-7" d="M185,273.42c-10,0-10,15.53,0,15.53S195,273.42,185,273.42Z"/>
        <path class="cls-7" d="M82.52,323.12c-10,0-10,15.53,0,15.53S92.53,323.12,82.52,323.12Z"/>
        <path class="cls-7" d="M359,313.8c-10,0-10,15.53,0,15.53S369,313.8,359,313.8Z"/>
      </g>
    </g>
  </g>
</svg>
