<svg xmlns="http://www.w3.org/2000/svg" viewBox="0 0 186.07 422.55">
  <defs>
    <style>
      .cls-1 {
        fill: #0f1110;
      }
    </style>
  </defs>
  <title>Ресурс 16</title>
  <g id="Слой_2" data-name="Слой 2">
    <g id="Слой_4" data-name="Слой 4">
      <g>
        <path class="cls-1" d="M44.27,418.53C50,370.66,55.95,322.77,64.79,275.35c8.76-47,20.42-93.54,37.77-138.11a496.93,496.93,0,0,1,35.1-72.55c2.77-4.69-4.53-8.95-7.3-4.26C105.84,102,88,147.11,75,193.45c-13.22,46.89-21.78,95-28.64,143.14-3.88,27.26-7.22,54.6-10.52,81.94-.65,5.39,7.81,5.34,8.45,0Z"/>
        <path class="cls-1" d="M172.8.06c-26.6,9.16-46.63,36.88-43.47,65.36.12,1.11.76,3.31,2.39,2.64,25.86-10.64,36-38.73,42.2-63.77.73-3-2.7-5-3.59-1.4-5.88,23.64-15.45,49.7-39.72,59.8l2.31,1.9c-1.51-13.32,3-26.67,10.89-37.35C151.55,16.72,162.29,9.5,173.41,3c1-.61.87-3.44-.6-2.93Z"/>
        <path class="cls-1" d="M105.19,115.12c4.51-22.34-5.61-46.89-21.75-62.25-.88-.83-1.93.08-2.24,1-4.64,13.11-5.91,28-.48,41a42.43,42.43,0,0,0,9.65,14.2c3.61,3.49,10.14,8.7,15.49,8.16,1.74-.17,1.91-3.42.65-4.27-2-1.36-4.36-2-6.53-3a32,32,0,0,1-6.76-4.61A36.49,36.49,0,0,1,84.11,93c-5.28-11.64-4.1-24.94,0-36.74l-2.24,1C98,72.42,104.24,93.1,103.37,114.79c-.06,1.42,1.51,1.87,1.82.33Z"/>
        <path class="cls-1" d="M110.33,119.06c18.87-19.87,46.47-30.9,73.84-26l-.77-3.86C166.51,112,136,115.21,109.81,113c-2.22-.19-2.21,5,.13,5.17,27.36,1.88,58.54-1.47,75.7-25.71.85-1.2.45-3.69-1.17-3.93-27.73-4.25-57.84,6.23-75.14,28.68-.5.65.15,2.78,1,1.88Z"/>
        <path class="cls-1" d="M80,181.65c2.53-24.88-14-50.12-35.45-61.5-.87-.46-1.6.59-1.88,1.23-5.72,13.15-.13,27.8,7.47,38.93a78.13,78.13,0,0,0,13.21,14.83,76.18,76.18,0,0,0,8.38,6.33c2.61,1.7,5.43,3.81,8.59,4.19,1.89.22,1.43-3.33.62-4.09-2.16-2-5-3.22-7.53-4.82a74.81,74.81,0,0,1-7.13-5.22,73.45,73.45,0,0,1-11.84-12.34c-7.39-9.78-14.06-23.08-8.79-35.29l-1.88,1.23a63.91,63.91,0,0,1,24.67,23.28c6.21,10.16,8.83,21.17,9.79,32.92.1,1.25,1.6,2,1.76.32Z"/>
        <path class="cls-1" d="M85.67,184.11c8-10.25,20.89-16.65,33.07-20.42a88.93,88.93,0,0,1,39.61-2.83l-.9-4.42a74.66,74.66,0,0,1-33.58,22.67,75.88,75.88,0,0,1-20.17,3.81c-7,.36-13.46-1.07-20.34-1.63-2-.17-1.85,4.07-.3,4.66,6.32,2.39,14.09,2.37,20.76,2A79.45,79.45,0,0,0,124.36,184a76.84,76.84,0,0,0,34.78-23.5c1-1.22,1.1-4.13-.9-4.42a90.21,90.21,0,0,0-41.56,3.57c-12.33,4.08-25.82,10.78-32.34,22.54-.52.94.25,3.29,1.32,1.91Z"/>
        <path class="cls-1" d="M60.6,265.12c1.13-12.85-4.42-26.6-11.58-37a68.16,68.16,0,0,0-31.21-25c-1.22-.47-1.87,1-2.08,1.89a45.07,45.07,0,0,0,7.18,36,47.27,47.27,0,0,0,14.44,12.79c3.37,2,6.88,3.81,10.39,5.6,3.32,1.69,7.06,4.42,10.81,4.75,1.93.17,1.42-3.32.63-4.12-2.36-2.38-5.81-3.62-8.77-5.13s-6-3-9-4.66c-5.49-3-10.76-6.6-14.73-11.53a38.62,38.62,0,0,1-7.58-32.43L17,208.25a63.48,63.48,0,0,1,29.33,22.39,66.87,66.87,0,0,1,8.56,16c2.24,6,3.09,12.22,4.12,18.54.18,1.11,1.47,1.11,1.57,0Z"/>
        <path class="cls-1" d="M65.74,268.67c15.28-24.07,43.54-38.92,72.08-36.21l-1.29-4.31c-7.77,10.31-17.62,19.34-29.29,25-13.39,6.51-28.27,7.36-42.89,8-2.48.12-2.33,5.71.14,5.58,15.32-.77,30.92-1.82,44.82-8.92,12-6.11,21.75-15.45,29.67-26.17.91-1.23.52-4.15-1.29-4.31-29.46-2.52-59.56,13.06-73.2,39.49-.46.89.37,3.17,1.24,1.8Z"/>
        <path class="cls-1" d="M48.51,341.86c-1.43-26.93-21.41-51.36-45.89-61.41-1.15-.47-1.86,1-2,1.83-2.46,13.21,2.85,26.33,11.67,36.1C22.14,329.33,35.85,335.75,49,341.9c2.32,1.09,2.93-4.32.83-5.3-11.63-5.42-23.52-11-32.93-19.9C8,308.26,1.67,296,3.87,283.57l-2,1.83c24.36,9.74,40,31.6,45.32,56.77.24,1.15,1.4.75,1.34-.31Z"/>
        <path class="cls-1" d="M53.13,340.85c7.8-8.51,15.56-16.89,25.08-23.53a77.64,77.64,0,0,1,34.73-13.71,65.34,65.34,0,0,1,8.52-.47c1.63,0,3.25.1,4.87.25.61.05,1.22.12,1.82.2s1.39.18,2.09.31l-.38-1.13c-3,4.58-7.35,8.7-11.41,12.34a96.35,96.35,0,0,1-28,17.49,94,94,0,0,1-36.65,6.95c-2.47,0-2.38,5.59.14,5.61a97.94,97.94,0,0,0,68-27q3.15-3,6-6.31c1.75-2,4.08-4.3,5.15-6.78,2.8-6.43-5.16-6.7-9.28-6.88-13.79-.61-27.62,3.39-39.51,10.25A96.42,96.42,0,0,0,52,338.74c-.47.72.16,3.17,1.14,2.11Z"/>
      </g>
    </g>
  </g>
</svg>
