<svg xmlns="http://www.w3.org/2000/svg" viewBox="0 0 106.41 331.82">
  <defs>
    <style>
      .cls-1 {
        fill: #f3cb29;
      }
    </style>
  </defs>
  <title>Ресурс 23</title>
  <g id="Слой_2" data-name="Слой 2">
    <g id="Слой_4" data-name="Слой 4">
      <path class="cls-1" d="M91.33,197.2c-14,7.63-27.17,18.53-34.08,32.87a5.4,5.4,0,0,0-.9,1.16c-.07-.27-.15-.53-.22-.8q1.65-15.09,2.71-30.23.8-11.41,1.25-22.86c2.12-2.46,2.79-7,.74-9.11a1.39,1.39,0,0,0,.66-.16,3.29,3.29,0,0,0,3.58,2.85c23.25-.61,41.79-20.67,41.34-43.11-.06-3.21-2.63-5.15-5.53-3.29C85,134.7,69.76,146.34,60.5,162.83c.27-15.22,0-30.47-.88-45.68A3.94,3.94,0,0,0,62,116.9,61.56,61.56,0,0,0,102,66c.35-3.06-1.63-7.2-5.24-4.6-15.55,11.18-27.19,25.06-34.29,42l-3,3.12a4,4,0,0,0-.48.63q-1.46-18.57-4.32-37c6.83-8.36,8.48-21.32,8.79-31.68A78.77,78.77,0,0,0,55,1.57C53.43-1.62,49.46.7,48.4,2.84,38,23.91,37.11,47.55,47,69.37a2.92,2.92,0,0,0,1.38,1.55,3.91,3.91,0,0,0-.09,1.51q2.48,15.67,4,31.46c-.57-.29-1.14-.58-1.7-.88a47.89,47.89,0,0,0-33-25.86c-4.91-1.11-7.3,6-5.64,9.56a56,56,0,0,0,39.9,31.5,4.32,4.32,0,0,0,1.56,0q1.41,20.45,1.34,41c-5.85-11-17.73-19.59-29.47-23-3.9-1.15-6.76,4.87-5.7,7.9.22.62.44,1.23.68,1.83-.52,1.86-.35,3.93.75,5.12a39.06,39.06,0,0,0,3.18,3,54.66,54.66,0,0,0,30.24,24.36q-.68,20.65-2.65,41.25c-6.89-13-18.83-23.2-33-29.4-4-1.75-6.41,5.27-5.73,7.94a61.91,61.91,0,0,0,35.76,41.42,4.31,4.31,0,0,0,.76.25q-3,24.81-7.66,49.3-2.75-2.33-5.41-4.75A90.64,90.64,0,0,0,6.44,252c-4-2.62-7.22,3.88-6.27,7,5.59,18.63,18.84,33.15,37,41.11a3.13,3.13,0,0,0,2.07.19l.36.73q-2.91,14.42-6.26,28.66c-.64,2.71,2.57,2.77,3.25.5,2.9-9.65,5.46-19.4,7.74-29.22a3.7,3.7,0,0,0,2.51,1.08c20.78,1.51,37.59-13.7,42.11-32.54.76-3.18-1.06-6.59-4.66-5.75-15.59,3.6-29.53,13-37.55,26.48l0,.08c3.45-16.39,6.12-33,8.19-49.6a2.58,2.58,0,0,0,2.8.81,48.5,48.5,0,0,0,34.69-26A41.38,41.38,0,0,0,95,212a6,6,0,0,0,.45-4.21,50.35,50.35,0,0,0,1.38-5.73C97.54,198.31,95.12,195.13,91.33,197.2Z"/>
    </g>
  </g>
</svg>
