<svg xmlns="http://www.w3.org/2000/svg" viewBox="0 0 369.62 347.88">
  <defs>
    <style>
      .cls-1 {
        fill: #a13f96;
      }

      .cls-2 {
        fill: #f3cb29;
      }

      .cls-3 {
        fill: #0f1110;
      }

      .cls-4 {
        fill: #0c0e0d;
      }

      .cls-5 {
        fill: #2830ce;
      }

      .cls-6 {
        fill: #fff;
      }
    </style>
  </defs>
  <title>Ресурс 25</title>
  <g id="Слой_2" data-name="Слой 2">
    <g id="Слой_4" data-name="Слой 4">
      <g>
        <path class="cls-1" d="M244.58,338.56s15.25-24.85-12.2-55.91C232.38,282.65,217.13,313.71,244.58,338.56Z"/>
        <path class="cls-1" d="M165.29,347.88s30.5-28,9.15-62.12C174.44,285.75,153.09,307.5,165.29,347.88Z"/>
        <path class="cls-2" d="M23.29,192.57S59,76.1,178.6,76.1s175.49,85.42,175.49,85.42S310.6,264,198.79,264,23.29,192.57,23.29,192.57Z"/>
        <path class="cls-3" d="M37.29,176.17c.6,0,.58-1.36,0-1.36s-.58,1.36,0,1.36Z"/>
        <path class="cls-1" d="M226.66,104.64C213.33,96.76,193.49,93,175,95.19c-.54,0-1.07,0-1.62,0-35.11,2.43-64.34,28.27-64.85,64.18C108.08,194,134.37,227,168.2,232c49.22,7.2,74.54-15.7,86.49-45.6C266.46,156.93,254.38,121,226.66,104.64Z"/>
        <path class="cls-4" d="M204.41,157.46c-.05-.21-.12-.4-.17-.61.14-9-3.48-17.78-11.64-22.44a18.21,18.21,0,0,0-11-2.4c-7.09-.93-13.91,2.19-18.52,8.25-12.27,16.1-5,46.7,19,44.43,12.58-1.2,20.52-12.45,22-24.34A4.09,4.09,0,0,0,204.41,157.46Z"/>
        <path class="cls-5" d="M143.66,67.94c.33,0,.32-.76,0-.76s-.32.76,0,.76Z"/>
        <path class="cls-5" d="M232.09,274.13c-.34,0-.32.76,0,.76s.32-.76,0-.76Z"/>
        <path class="cls-1" d="M125,9.32s-15.25,24.85,12.2,55.91C137.24,65.23,152.49,34.17,125,9.32Z"/>
        <path class="cls-1" d="M204.33,0s-30.5,28-9.15,62.12C195.18,62.12,216.53,40.38,204.33,0Z"/>
        <path class="cls-1" d="M286.67,21.74s-30.5,18.64-24.4,52.8C262.28,74.54,292.77,62.12,286.67,21.74Z"/>
        <path class="cls-1" d="M54.9,40.38S51.84,77.65,82.34,83.86C82.34,83.86,82.34,49.7,54.9,40.38Z"/>
        <path class="cls-1" d="M0,93.18s30.5,3.11,33.55,37.27C33.55,130.45,3,127.35,0,93.18Z"/>
        <path class="cls-1" d="M363.41,70.71s-38.57.81-40.69,39.17C322.72,109.88,350.74,112.24,363.41,70.71Z"/>
        <path class="cls-1" d="M82.94,326.13s30.5-18.64,24.4-52.8C107.34,273.33,76.84,285.75,82.94,326.13Z"/>
        <path class="cls-1" d="M314.72,307.5s3-37.27-27.45-43.48C287.28,264,287.28,298.18,314.72,307.5Z"/>
        <path class="cls-1" d="M369.62,254.69s-30.5-3.11-33.55-37.27C336.07,217.42,366.57,220.53,369.62,254.69Z"/>
        <path class="cls-1" d="M6.21,277.16S44.78,276.36,46.9,238C46.9,238,18.88,235.64,6.21,277.16Z"/>
        <path class="cls-6" d="M74,199.78c.56-15.33-3.72-32-6.83-46.75-.35-1.66-2.32-4.41-4.19-2.45-9.5,10-19,21.57-24.08,34.47a3.31,3.31,0,0,0-.08,1.46,3.72,3.72,0,0,0,.85,3.32c4.48,3.51,9.86,5.47,15,7.8,5.56,2.52,10.89,5.42,16.26,8.29C73.72,207.4,74.88,203,74,199.78ZM45.17,185.11c6-7.84,11.46-16,17.8-23.68,1.84,10.92,2.71,22.27,4.84,33.09C60.95,190.56,52.84,186.27,45.17,185.11Z"/>
        <path class="cls-6" d="M339.25,165l0-.15c0-1.76-.62-3.62-1.63-4.23-2.49-4.77-6.84-9.11-10.34-12.71-4.83-5-11.12-11.69-17.93-13.71-2-.58-2.58,2.15-2.14,3.87a2.36,2.36,0,0,0-.07,1c1.61,7.44,3.42,14.8,3.8,22.43.34,6.84-.58,13.65-.85,20.48a2.09,2.09,0,0,0,1.62,2.29c.24,1.55,1.09,2.79,2.69,2.18,8.94-3.44,17.35-11.8,23.91-18.57C339.16,167.51,339.42,165.75,339.25,165Zm-24.59,13.45c3-10.84,1.94-23.76-2.11-34.45,3.58,3.18,7.48,6.1,10.84,9.47,2.77,2.78,5.53,5.6,8.09,8.56.45.52.87,1.07,1.28,1.6-2.73,2.55-5.51,5-8.41,7.4C321.21,173.57,317.76,175.82,314.65,178.42Z"/>
        <path class="cls-6" d="M188.44,141.26a6.53,6.53,0,0,0-5.45-.33,4.41,4.41,0,0,0-.92.52,5.53,5.53,0,0,0-1,.26c-3.57,1.33-5,6-4.92,9.38.1,4.68,3.38,10.36,7.77,11.19a1.94,1.94,0,0,0,1.08.1,7.12,7.12,0,0,0,4.39-1.66C195.25,156.22,195.3,144.86,188.44,141.26ZM186.86,151l0,0C186.79,151.06,186.76,151.08,186.86,151Zm.07-.07h0C186.92,150.61,186.92,150.61,186.93,150.9Zm0,.19s0-.09,0-.14,0,.09,0,.14Zm0-.19s0,0,0-.07C187.21,150.59,187.07,150.76,186.93,150.9Z"/>
        <path class="cls-6" d="M250.63,110.46c-6-2.48-13.91.92-18.34,5s-9.66,13.64-5.19,19.43a2.2,2.2,0,0,0,2.28,1,3.93,3.93,0,0,0,1.31.36,25.92,25.92,0,0,0,20-6.64C255.82,125,258.94,113.89,250.63,110.46Z"/>
        <path class="cls-6" d="M128.23,192.81c-3.73-1.7-7.84-.34-10.55,2.54a18.73,18.73,0,0,0-2.79,4,8.06,8.06,0,0,0-1.5,1.9c-2.22,3.85-2.12,10,1.42,13.11,6.3,5.5,17.64-3.3,18.75-9.94C134.3,199.91,132.56,194.78,128.23,192.81Zm-1,11.65h.09A.09.09,0,0,1,127.22,204.45Z"/>
      </g>
    </g>
  </g>
</svg>
