<svg xmlns="http://www.w3.org/2000/svg" viewBox="0 0 550.05 488.86">
  <defs>
    <style>
      .cls-1 {
        fill: #f3cb29;
      }

      .cls-2 {
        fill: #139a9c;
      }

      .cls-3 {
        fill: #a13f96;
      }

      .cls-4 {
        fill: #101211;
      }

      .cls-5 {
        fill: #fff;
      }
    </style>
  </defs>
  <title>Ресурс 28</title>
  <g id="Слой_2" data-name="Слой 2">
    <g id="Слой_4" data-name="Слой 4">
      <g>
        <path class="cls-1" d="M546,472.07c-18.93-39.72-42.5-77.62-64-116q-33.37-59.41-67.15-118.6T346.34,119.63C323.07,80.29,301.24,37.88,273.5,1.5,271-1.81,268.61.95,268,4.08c-.1.15-.19.3-.29.48-43.07,79.26-88.77,157.23-133.54,235.53C89.46,318.21,41.46,395.44.58,475.61c-2,4,1.7,14.37,5.64,8.14l.35-.56c.3,2.83,1.76,5.41,4.32,5.43,178.37,1.3,356.92-3,535.29-4.49C551.46,484.09,551.27,472.22,546,472.07ZM11.09,475.94c22-35.65,41.59-73,62.26-109.42Q106.79,307.62,140,248.6C183.84,170.94,226.9,92.65,272.37,15.94c19.1,36,42.65,70.27,63.5,105.26q34.85,58.49,68.74,117.55,33.21,57.73,65.79,115.82C492.3,393.48,516.25,432,536,472.13,361.05,473.32,185.94,471.94,11.09,475.94Z"/>
        <path class="cls-1" d="M455.94,430a8.5,8.5,0,0,0-.86-4.12q-44.37-82.45-88.6-165Q345.61,222,324.63,183.16c-14.85-27.57-28.31-56.82-45.64-82.92a10.09,10.09,0,0,0-.66-.83c-1.74-3.72-4.42-5.78-7.8-1.68-9.22,11.14-14.29,25.58-20.59,38.55-7,14.41-14.25,28.62-21.85,42.72q-23.29,43.16-47.63,85.74c-15.81,27.65-31.09,55.61-47.46,82.93C116.29,375.52,96.25,402.74,82.14,432c-3.95,2.57-3.32,12.22,1.87,12.25,61,.33,122.15-5.18,183.25-5.32q45.85-.11,91.69.84c30.06.67,61.81,6.46,91.64,3.35C455.39,442.59,457.37,435.12,455.94,430Z"/>
        <path class="cls-2" d="M236.54,249.82s-28.7,16.14-25.11,44.85,36.24,55.1,63,52.67,50.05-13.2,60.81-36.52,3.16-43.58,3.16-43.58S299.93,246.49,277.8,248,236.54,249.82,236.54,249.82Z"/>
        <path class="cls-3" d="M277.8,248l-22.14,1.54s-35.27,37.92-8.36,61.24,58.36,3.21,65.58-9.58-4.59-46-4.59-46Z"/>
        <path class="cls-4" d="M129.27,315.57c36.91,35.81,90.39,53.33,141.19,53.91a219,219,0,0,0,73.19-11.58c29.83-10.2,59.49-29.71,86.84-44.7,3.12-1.71-6.39-6.13-9.86-4.23-24.14,13.27-43.06,26.92-68.77,37.28a212.26,212.26,0,0,1-76.33,15c-53.88.73-102.06-18.43-144.53-50.6-2.52-1.91-3.27,3.4-1.74,4.88Z"/>
        <path class="cls-4" d="M223.84,255.43c-15.25,13.2-18.77,35.48-12.57,54.15,7.93,23.89,31.37,38.56,55.62,41.32,26.6,3,55.68-8.48,69.56-32.13,7.21-12.28,16.59-46.36,1.26-56.46-1.9-1.25-3.28.51-3.6,2.35l-.18,1c-.27,1.58.32,4,2.23,4.21l.67.06c2.21.2,2.29-4.1,1.29-5.24l-.54-.61q-.16,2.65-.32,5.3a125.85,125.85,0,0,1,2.3,17.48,51.6,51.6,0,0,1-3.25,17.69,55,55,0,0,1-17.13,23.61c-13.8,11.23-32.37,16.21-50,14.83-41.11-3.24-74.25-46.28-43.34-82.65,1.36-1.6.48-7.12-2-4.94Z"/>
        <path class="cls-5" d="M302.66,248.2c-2.68-1.43-2.62,4.14-1.88,5.32,9.28,14.8,17.11,29.34,7.47,46.77-6.92,12.52-21.16,18.58-35.06,17.72-35.59-2.19-42.67-44.77-16.4-64.71,1.1-.84.58-4.56-1.13-3.72-15.34,7.57-22.14,25.76-19.85,42.17,2.61,18.7,17.37,32.21,36.08,34.05,20.1,2,38.54-9.83,44.21-29.32C320.42,281.62,318,256.35,302.66,248.2Z"/>
        <path class="cls-4" d="M137,377.34c6-5.46,11-12.18,16.23-18.41,4.37-5.22,10.13-10.33,12.57-16.74.3-.79,0-3.17-1.37-2.57-6.06,2.76-10.74,11.25-14.94,16.32-4.89,5.9-10.1,11.69-14.23,18.17-.69,1.09.05,4.75,1.74,3.23Z"/>
        <path class="cls-4" d="M192.79,402c3.85-6.33,6.63-13.26,9.6-20,3.39-7.71,7.5-15.44,9.76-23.55.43-1.53-1-5.74-2.73-3.05-4,6.28-6.43,13.58-9.35,20.4-3.37,7.84-7,15.63-9.44,23.83-.36,1.21.86,4.54,2.15,2.41Z"/>
        <path class="cls-4" d="M271.74,413.5c1.12-7.25.94-14.69,1-22s.81-14.95-.63-22.16c-.46-2.28-2.65-2.08-3.08.08-1.44,7.2-.62,14.87-.55,22.19s-.05,14.72,1.07,22c.25,1.62,2,1.49,2.2-.05Z"/>
        <path class="cls-4" d="M358.12,398.12c-2.16-15.19-8.7-29.72-16-43.07-1.89-3.44-4.31,2.38-3,4.78,7.15,12.83,11.53,26.23,16.59,39.91.88,2.39,2.62-.11,2.4-1.62Z"/>
        <path class="cls-4" d="M413.43,363.62a116.66,116.66,0,0,0-12-19.16c-3.43-4.6-7.73-12.72-13.32-14.64-1.7-.58-1.83,2.19-1.49,3.15,2.15,6.08,7.92,11.16,11.85,16.26,4.32,5.61,8.36,11.47,13,16.79,1.47,1.67,2.56-1.11,1.95-2.4Z"/>
        <path class="cls-4" d="M138.65,247.4a92.66,92.66,0,0,0,14.54,22.45c5.1,5.65,12.42,14.33,20.3,15.55,2.09.32,1.92-3.76,1.17-4.76-4.65-6.15-12.08-10.14-17.45-15.77A111.18,111.18,0,0,1,141.39,244c-1.55-2.67-3.58,1.62-2.74,3.38Z"/>
        <path class="cls-4" d="M193.88,215.77c-.11,8.28.7,16.93,3.58,24.75,2.25,6.11,6.24,15.76,12.8,18.09,2.23.79,2.44-2.91,2-4.17-2.27-6.08-7-11-9.83-16.87a55.31,55.31,0,0,1-5.94-21.86c-.12-2.41-2.54-2.35-2.58.06Z"/>
        <path class="cls-4" d="M268.06,197c-4.22,15.68-6.61,35.56.3,50.86,1.13,2.51,3.39.68,3.27-1.44-.93-16.45-3.72-31.45-1.35-48.06.2-1.41-1.64-3.52-2.22-1.35Z"/>
        <path class="cls-4" d="M358.48,217.32c-4.8,11.37-12.74,20.15-21.67,29.64-1.6,1.7.17,7.23,3.42,5,11.84-8.23,18.47-21.38,21-33.32.29-1.38-1.87-3.35-2.73-1.3Z"/>
        <path class="cls-4" d="M413.58,252.4a116.38,116.38,0,0,1-12,15.94c-4.26,4.66-9.88,8.13-13.87,12.92-.82,1-.92,4.72,1.2,3.94,5.87-2.17,11.08-8.65,15.07-13.29a78.29,78.29,0,0,0,11.23-17.23c.54-1.11-.46-4.06-1.59-2.29Z"/>
        <path class="cls-5" d="M289,282.22c-.19-7.33-4.66-14.84-12.82-14.22-10.75.82-14,13.75-9.79,22.21,2.17,4.36,6.41,7.75,11.5,7.16a13.19,13.19,0,0,0,10.82-9.5A11.7,11.7,0,0,0,289,282.22Z"/>
        <path class="cls-5" d="M244,185.54q15.79-28.35,29.54-57.76c.57-1.22-1.25-2.3-1.82-1.07q-13.74,29.4-29.54,57.76c-.66,1.19,1.16,2.26,1.83,1.07Z"/>
        <path class="cls-5" d="M271.59,129.36l28.55,56.14c.62,1.21,2.44.14,1.82-1.07l-28.55-56.14c-.62-1.21-2.44-.14-1.83,1.07Z"/>
        <path class="cls-5" d="M243.17,186.1h59.15a1.06,1.06,0,0,0,0-2.11H243.17a1.06,1.06,0,0,0,0,2.11Z"/>
        <path class="cls-5" d="M119.67,401.73a14.37,14.37,0,0,0-4.24,19.42c4.24,6.62,13.74,6.94,19.63,2.39,6.75-5.2,5.84-14.9-.24-20.27-7.27-6.43-17.54-2.62-21.65,5.42-.62,1.21,1.2,2.28,1.82,1.07,3.54-6.92,12.42-10.61,18.68-4.7,5.19,4.9,5.63,13.38-.79,17.42-5.08,3.2-12.54,2.73-15.83-2.76-3.19-5.32-1.56-12.87,3.69-16.19,1.15-.73.09-2.55-1.07-1.82Z"/>
        <path class="cls-5" d="M394.69,400.06V428.7a1.06,1.06,0,0,0,2.11,0V400.06a1.06,1.06,0,0,0-2.11,0Z"/>
        <path class="cls-5" d="M425.68,400.06v29.58a1.06,1.06,0,0,0,2.11,0V400.06a1.06,1.06,0,0,0-2.11,0Z"/>
        <path class="cls-5" d="M395.28,400.81l31-.37a1.06,1.06,0,0,0,0-2.11l-31,.38a1.06,1.06,0,0,0,0,2.11Z"/>
        <path class="cls-5" d="M395.28,430.7h31.46a1.06,1.06,0,0,0,0-2.11H395.28a1.06,1.06,0,0,0,0,2.11Z"/>
        <path class="cls-4" d="M133.62,318c43-33.5,87.53-65.91,144.86-61.25,26.77,2.18,52.14,11.28,76.41,22.34,23.39,10.66,44.66,27.89,68.35,37,6.47,2.49,9.39-3.59,6.54-6.39-19.54-19.16-53.56-38.36-78.37-49.15-24.35-10.59-49.86-18.75-76.56-20-55.38-2.7-107.72,29.94-144.74,69-2.59,2.73-1,12,3.51,8.51Z"/>
      </g>
    </g>
  </g>
</svg>
