<svg xmlns="http://www.w3.org/2000/svg" viewBox="0 0 508.81 242.91">
  <defs>
    <style>
      .cls-1 {
        fill: #101211;
      }

      .cls-2 {
        fill: #a13f93;
      }

      .cls-3 {
        fill: #f1ca2c;
      }
    </style>
  </defs>
  <title>Ресурс 22</title>
  <g id="Слой_2" data-name="Слой 2">
    <g id="Слой_4" data-name="Слой 4">
      <g>
        <path class="cls-1" d="M63.29,49.27c-9.88,8.79-19.39,18-29.82,26.12C22.88,83.69,11.38,90.68.67,98.81c-1.23.93-.73,4.82,1.24,4.07,24.41-9.24,47.56-29.14,63.63-49.43,1.13-1.42-.14-6.06-2.25-4.19Z"/>
        <path class="cls-1" d="M247.15,139.79c-4.52,32.32-7.69,68.54-5.37,101.07.15,2.08,2.43,3.09,2.85.51,5.27-32.47,6.06-68.07,6.16-100.93,0-2.74-3.19-3.87-3.64-.66Z"/>
        <path class="cls-1" d="M454.55,53.79c2.67,9,14.64,15.8,21.44,21.58,9.71,8.26,19.83,18.46,31.45,23.88,1.46.68,1.64-2.28,1.06-3-7-8.49-16.15-15.19-24.51-22.25-4.33-3.66-8.67-7.31-13-11s-10.39-7.27-13.33-12.14c-1.58-2.62-3.64,1.2-3.13,2.92Z"/>
        <path class="cls-1" d="M398.7,105.44c6.16,14.13,15.29,27.16,23.31,40.3,5.6,9.18,10.84,19.61,20.56,25,1.67.92,1.93-2.74,1.26-3.55-16.45-20-26.33-44.74-42.86-64.52-1.69-2-2.9,1.33-2.26,2.79Z"/>
        <path class="cls-1" d="M327.76,133.32c-1,28.22,5.64,67.05,21.59,90.87,1.36,2,2.29-1.32,2-2.42-5-16.39-10.84-32.15-14.19-49-2.64-13.33-3.62-27.17-7.65-40.16-.46-1.5-1.67-.19-1.71.75Z"/>
        <path class="cls-1" d="M176.38,132.63c-12.63,23.71-24.45,50.83-31.74,76.66-.4,1.41,1.2,5.46,2.56,2.86,12.5-23.88,23-50.76,32.28-76.05.68-1.85-1.49-6.49-3.1-3.47Z"/>
        <path class="cls-1" d="M110.56,95.94c-10.12,10.53-18.32,23-27.72,34.19-8.79,10.45-18.47,20.25-26.57,31.24-.94,1.28,0,5.21,2,3.67,11.54-9,21-21,30.17-32.28,8.59-10.57,17.58-21.37,24-33.45.56-1.06-.12-5.12-1.81-3.36Z"/>
        <path class="cls-2" d="M58.54,38C63.37,56.12,80.07,70.87,93.9,82.89c15.39,13.37,33,24.61,51.16,33.87A256.73,256.73,0,0,0,263,145a259.83,259.83,0,0,0,117.59-29.76,265.65,265.65,0,0,0,50.73-34.48C445,68.91,462.83,55.46,463.28,36.27c.07-3.09-1.58-8.58-5.09-9.59L455.77,26c-2.5-.72-5.51-.43-7.39,1.66C398.95,82.71,329.75,116.52,255,114.84,218.38,114,182.21,104.36,149.54,88a253,253,0,0,1-44.72-28.93c-6.94-5.55-13.61-11.33-20.06-17.43C78.92,36.15,73.64,28.55,65.66,26.5c-6.12-1.57-8.32,6.92-7.12,11.45Z"/>
        <path class="cls-3" d="M62.34,51.68c19.55,30.63,53.6,54.15,85.67,70.05,34.45,17.08,72.88,26.57,111.38,26.64a254.65,254.65,0,0,0,109.33-25c31.44-15,70.81-39.4,88.24-70.57.74-1.33.11-5.65-2.1-3.9-13.78,10.92-24.57,25.61-38.55,36.69a256.57,256.57,0,0,1-49.08,30.57,251.12,251.12,0,0,1-108,24.65c-37.26-.07-74.35-9.09-107.89-25.23-35-16.84-59.56-41.4-87.25-67.58-1.84-1.74-2.44,2.53-1.73,3.64Z"/>
        <path class="cls-1" d="M89.95,3.44c37.67,51.21,102.88,81.73,165.8,83.11a218.51,218.51,0,0,0,92.74-19c27.8-12.32,58.76-31.6,76.44-57,.89-1.28-.05-5.43-2-3.74-11,9.5-20.52,20.35-32.21,29.18A220.31,220.31,0,0,1,347.25,61.6,216,216,0,0,1,255.6,80.35C190.57,79,134.44,47.47,91.42.35c-1.34-1.47-2.21,2.07-1.47,3.09Z"/>
      </g>
    </g>
  </g>
</svg>
