<svg xmlns="http://www.w3.org/2000/svg" viewBox="0 0 214.61 204.08">
  <defs>
    <style>
      .cls-1 {
        fill: #f3cb29;
      }

      .cls-2 {
        fill: #ba388a;
      }

      .cls-3 {
        fill: #101211;
      }

      .cls-4 {
        fill: #fff;
      }
    </style>
  </defs>
  <title>Ресурс 10</title>
  <g id="Слой_2" data-name="Слой 2">
    <g id="Слой_4" data-name="Слой 4">
      <g>
        <path class="cls-1" d="M77.5,3.23C70.27,4.75,56.58,11,50.28,14.67c-9,5.24-18.56,13.25-24.13,20.47C11.9,53.64,7.48,64.41,2.35,87c-7.95,35,4.18,77.4,37.26,96.37A84.18,84.18,0,0,0,57.7,191c28.17,14.42,63.79,17.28,93,6.95,33.72-11.94,59.46-43.51,63.2-78.32C221.84,45.57,163.49-14.84,77.5,3.23Z"/>
        <path class="cls-2" d="M158.58,94.33c.57-13.05,29.51-15.32,19.86-28.94S151.2,77.31,145,67.66s11.35-30.08-.57-33.48-18.73,27.24-26.11,25S112,23.39,94.45,26.23c-16.48,2.66-1.13,21-7.95,30.65S61,36.45,48.48,46.09s18.73,27.81,17,35.75-43.7,3.4-40.86,20.43,37.46,2.27,43.7,13.05-21,38-7.95,50.51,24.4-26.67,36.32-26.11,19.3,43.7,39.16,34.62-4-36.32,6.81-43.13,28.94,19.3,38-3.4S158,107.39,158.58,94.33Z"/>
        <path class="cls-3" d="M138.82,80.2C131,67.41,115.34,60,101.34,67.95a26.64,26.64,0,0,0-7.12,5.89C76.14,84.15,79,116.13,98.57,127.09,128.81,144.07,155.43,107.38,138.82,80.2Z"/>
        <path class="cls-4" d="M161.9,147c-2.5-8.32-13.45-28.25-24.66-21.47-3.91,2.36-5.21,6.09-5,10.26-.37,9.35,6.31,20,12.8,25.1l.89.69c3.54,3.5,8.46,7.27,13,4.43,2.54-1.6,3.57-4.45,3.75-7.44A23.77,23.77,0,0,0,161.9,147Z"/>
        <path class="cls-4" d="M103.13,66.11a11.93,11.93,0,0,0-15.4-2.54C83.1,64.47,80,69.31,79.63,74a14.4,14.4,0,0,0,8.47,14c5.83,2.39,13.62.55,17.24-4.78S107.19,70.64,103.13,66.11Z"/>
      </g>
    </g>
  </g>
</svg>
