<svg xmlns="http://www.w3.org/2000/svg" viewBox="0 0 421.1 256.67">
  <defs>
    <style>
      .cls-1 {
        fill: #f3ca2d;
      }

      .cls-2 {
        fill: #f3cb29;
      }

      .cls-3 {
        fill: #0eb3b5;
      }

      .cls-4 {
        fill: #fff;
      }

      .cls-5 {
        fill: #a03e97;
      }

      .cls-6 {
        fill: #101211;
      }
    </style>
  </defs>
  <title>Ресурс 18</title>
  <g id="Слой_2" data-name="Слой 2">
    <g id="Слой_4" data-name="Слой 4">
      <g>
        <path class="cls-1" d="M19.94,218.41c4-9.76,7.93-19.6,12.68-29,4.3-8.57,9.61-22.52,17.77-27.8,1.37-.89,1.65-4.57-.53-4.64-8.58-.25-14.18,16.3-17.45,22.66a179.85,179.85,0,0,0-14.53,37.08c-.38,1.47,1.13,4,2.06,1.74Z"/>
        <path class="cls-1" d="M99.62,244c7.09-19.29,10.67-42.43,22.33-59.51.94-1.37,0-5.78-2.15-4-7.43,6.22-9.49,16.53-12.17,25.43-3.66,12.17-7.23,24.35-10.32,36.68-.39,1.55,1.53,3.53,2.31,1.4Z"/>
        <path class="cls-1" d="M199.67,255.31c3.35-21.93,7.87-45.88,6.11-68.1-.16-2.08-2.24-2.95-2.77-.5-4.72,21.7-4.26,45.47-5.82,67.63-.14,2,2.08,3.59,2.48,1Z"/>
        <path class="cls-1" d="M303,242.54c-3.17-21.3-8-44.77-18.4-63.84-1.13-2.08-2.73,1-2.39,2.23,5.59,21.1,13.27,41.44,18.13,62.81.63,2.79,3,1,2.66-1.2Z"/>
        <path class="cls-1" d="M382.88,209.63c-6.93-12.08-13.81-24.38-22-35.68-5.14-7.09-11.94-16-21.37-16.38-1.51-.06-1.3,2.72-.52,3.38,8.66,7.24,16.09,13.38,22.62,22.86s13,19,19.55,28.57c1.35,2,2.45-1.46,1.71-2.75Z"/>
        <path class="cls-2" d="M0,133.67C0,129,30.54,4.77,189,.11S419.83,143,419.83,143,293,26.51,187.4,38.93,23.87,103,7,130Z"/>
        <path class="cls-3" d="M413.75,142c-1.14-1.51-2.33-3-3.52-4.43a2,2,0,0,0-.61-.9l-.25-.18a147.54,147.54,0,0,0-27-25.49c-8.16-6.54-17.17-12.31-25.22-17.65a336.74,336.74,0,0,0-48.71-26.9c-35.27-15.74-74-25-112.95-25.43C127.85,40.2,56,66.91,14.54,119.55c-6.05.72-7.28,15.17-2.61,18.76,49.37,38,119.71,54.51,181.84,54.29A328.13,328.13,0,0,0,286.29,179c33-9.88,64.38-24.87,98.58-30.64,8.05-.49,16.1-1.15,24.12-1.68a.81.81,0,0,0,.46-.18,18.59,18.59,0,0,0,3.13.23C414.64,146.69,414.63,143.13,413.75,142Zm-14.47,1.46.22-.34.85.37Z"/>
        <path class="cls-4" d="M250.44,97.67c-6.9-45.09-76.35-60.88-105.69-27.48-30.12,34.3-8.72,94.41,37.59,98.79a58,58,0,0,0,14.92-.55c11.79-.07,23.48-3,32.76-9.54C249.1,145.41,253.78,119.51,250.44,97.67Z"/>
        <path class="cls-3" d="M3.37,133.91C15.95,120.59,28.09,107.48,43,96.65c16.36-11.89,34.2-19.58,52.55-27.71,1.1-.49.81-3.11-.57-2.77C59.33,75.08,22.79,101.55,2.3,131.91c-.46.68.14,3,1.08,2Z"/>
        <path class="cls-3" d="M3.85,131.7a10.34,10.34,0,0,0,1.6,6.91c1,1.66,2.31-.42,2.28-1.52a26.14,26.14,0,0,1,.64-6.58l-2.69.07a16.63,16.63,0,0,0,2.76,5.76c1.27,1.7,2.44-.38,2.5-1.67q.17-3.54.34-7.09l-2.78,1.23q1.38,3.47,2.73,6.95c.91,2.34,2.91.48,2.87-1.27a53.47,53.47,0,0,1,.83-10.73c.46-2.57-2.34-4.32-3.1-1.21a21.87,21.87,0,0,0,3.3,18.27c1.83,2.66,3.5-2,2.35-3.78-3.6-5.66-3.79-11.63-1-17.6l-3.15-1.92A39.4,39.4,0,0,0,17.28,140c1.68,3.31,3.7-.59,3-2.8a26.48,26.48,0,0,1,1.6-20.08l-3-2.5A85.4,85.4,0,0,0,21.41,147c1,3.83,4.65,1.45,3.78-1.7A87.21,87.21,0,0,1,22.3,115.9c.09-1.3-1.62-5.21-3-2.5A34.79,34.79,0,0,0,17.28,140l3-2.8a31.93,31.93,0,0,1-3.59-18.34c.14-1.33-1.64-5.07-2.9-2.45a24.48,24.48,0,0,0,1.35,24.46L17.49,137a15.66,15.66,0,0,1-2.55-13.28l-3.1-1.21a54.36,54.36,0,0,0-.84,12l2.87-1.27q-1.42-3.43-2.81-6.87c-.94-2.33-2.71-.39-2.78,1.23q-.15,3.54-.31,7.09l2.5-1.67a10,10,0,0,1-2.28-4.2c-.62-1.79-2.25-.8-2.54.57A30.6,30.6,0,0,0,5,137.16l2.28-1.52L6,132.09c-.13-1.52-2-2.4-2.16-.39Z"/>
        <path class="cls-3" d="M9.35,131.19a10.67,10.67,0,0,0,4.81,6.9c2,1.28,2.81-2.46,1.75-3.67a24,24,0,0,0-5.78-4.87C8.22,128.38,7.93,133,9,133.94a120.62,120.62,0,0,0,11.45,9c2.12,1.46,3-2.66,1.87-3.93a31.79,31.79,0,0,0-6.47-5.71c-2.33-1.54-3,3-1.53,4.31l4.29,3.91c1.15,1,2,2,3.66,2,1.09,0,1.07-1.7.83-2.37-1.17-3.29-4.74-5.58-7.24-7.88l-1.53,4.31a31.71,31.71,0,0,1,6.13,5.33L22,138.58a119.76,119.76,0,0,1-11.5-8.81l-1.1,4.39a20.87,20.87,0,0,1,4.75,3.92l1.06-4.25a8.61,8.61,0,0,1-3.49-4.27c-1-2.24-2.73,0-2.38,1.61Z"/>
        <path d="M4,135.38C53.22,75,126.92,39.8,205.18,42.73,286.26,45.77,361.83,92,418,148c2.56,2.55,4.2-4.06,2.15-6.05C362,85.21,285.49,38.33,202.26,36c-78-2.15-152.55,33.53-200.85,94.52-1.38,1.75.68,7.17,2.59,4.82Z"/>
        <path d="M1.09,136.39c57.17,40.1,129.16,59.37,198.57,59.24a357.46,357.46,0,0,0,103.52-15.42c38-11.61,74-34,114.9-32,2.92.15,2.85-6.57-.17-6.7-36.52-1.63-68.39,15.69-101.87,27.63a345.14,345.14,0,0,1-106.6,19.67C135.52,190.83,65.72,169.28,3,131c-2.87-1.75-4,3.9-1.9,5.34Z"/>
        <path class="cls-5" d="M138.14,117.2c.21,0,.2-.47,0-.47s-.2.47,0,.47Z"/>
        <path class="cls-6" d="M208.18,89.78c-12.84-11.25-32.51-9.17-41.17,6a27.35,27.35,0,0,0-2.16,21.62,26.69,26.69,0,0,0,43.51,14.53C221.22,120.82,220.87,100.9,208.18,89.78Z"/>
      </g>
    </g>
  </g>
</svg>
