<svg xmlns="http://www.w3.org/2000/svg" viewBox="0 0 447.91 300.97">
  <defs>
    <style>
      .cls-1 {
        fill: #a03e97;
      }

      .cls-2 {
        fill: #f3ca2d;
      }
    </style>
  </defs>
  <title>Ресурс 17</title>
  <g id="Слой_2" data-name="Слой 2">
    <g id="Слой_4" data-name="Слой 4">
      <g>
        <path d="M14.33,189.9C57.83,123.78,126.41,74,209.13,83.73,293.79,93.64,369.51,159.05,422,222.14c2.74,3.3,5.08-2.77,3.16-5.08C371.84,153.05,295.05,86.41,209,76.62,127.36,67.34,51.2,116.47,11.52,185.85c-1.16,2,.82,7.06,2.8,4.05Z"/>
        <path d="M10.95,192.81c36.84,62.57,126.13,82.18,193.24,78,81.26-5.05,161-47.74,222.22-99.55,2.21-1.87.43-8.51-2.49-6-59.29,50.23-136.57,91.75-215.1,98.14-69.42,5.65-154-14-195.27-74.74-2-3-3.77,2.21-2.6,4.18Z"/>
        <g>
          <path class="cls-1" d="M185.48,97.46h-1c-7.28.07-26,1.53-42.53,13.49-19.11,13.81-28.64,36.76-28.31,68.2.26,24.84,9.91,43.44,28.68,55.28,26.65,16.81,65.41,14.93,82,7.22,27.64-12.85,44.16-50.87,37.6-86.56C255.56,120.52,224.9,97.46,185.48,97.46Z"/>
          <path d="M266.5,154.24c-6.77-36.86-39.26-61.45-81-61.45h-1.07c-7.72.08-27.59,1.63-45.22,14.37-20.41,14.75-30.59,39-30.24,72,.27,26.16,10.94,46.62,30.86,59.18,15.72,9.91,35,13.72,52.15,13.71,13.83,0,26.28-2.48,34.32-6.21C255.75,232.18,273.42,191.93,266.5,154.24Zm-42.19,87.41c-16.6,7.72-55.36,9.59-82-7.22-18.77-11.84-28.42-30.44-28.68-55.28-.33-31.44,9.2-54.38,28.31-68.2,16.54-12,35.25-13.42,42.53-13.49h1c39.43,0,70.08,23.06,76.43,57.62C268.46,190.78,251.95,228.8,224.31,241.65Z"/>
        </g>
        <path d="M28.88,251.74c6.74-6.47,11.82-15.22,17.24-22.8,1.6-2.23-.86-7.73-3.13-4.51-5.44,7.7-11.81,15.38-16,23.85-.53,1.08,0,5.23,1.86,3.46Z"/>
        <path d="M66,274.83c5-7.7,7.84-17.31,10.95-25.91,1-2.74-2.17-7-3.67-3.11-3.42,8.9-7.39,18.14-9,27.58-.15.92.81,2.79,1.7,1.43Z"/>
        <path d="M103.81,289.17c2-4.7,3.56-9.61,5.24-14.45,1.55-4.46,3.89-9,4.21-13.75.06-.9-.83-4.07-2.23-2.48-3.11,3.53-4.07,8.88-5.44,13.3a109.2,109.2,0,0,0-4,16c-.22,1.46,1.32,3.36,2.2,1.34Z"/>
        <path d="M148.63,296c1.09-5.14,1.2-10.53,1.55-15.77.3-4.42,1-8.88.27-13.27-.29-1.79-2.5-2.64-3.13-.54-1.26,4.21-1.09,8.68-1.32,13.06-.28,5.29-.81,10.7-.37,16,.19,2.23,2.42,3.19,3,.54Z"/>
        <path d="M190.48,299.56c1-5.62.81-11.46,1.27-17.14.38-4.77,1.4-9.44.85-14.21-.22-1.89-2.11-2.15-2.87-.5-2.09,4.55-2,10.16-2.28,15.1-.35,5.58-.69,11.3.47,16.8.39,1.85,2.22,1.76,2.55-.06Z"/>
        <path d="M234.28,293.47c-1.14-5-2.82-9.77-3.86-14.76-.91-4.37-.54-9.24-2.46-13.28-.62-1.3-2.07-1.44-2.56.06-1.56,4.74-.07,10.28,1,15,1.18,5.25,2.73,10.44,5.75,14.94,1.19,1.77,2.4-.83,2.13-2Z"/>
        <path d="M272.6,285.73c-.31-5.67-2.19-11-3.84-16.4-1.14-3.71-1.71-11.27-5.37-13.4-.71-.41-1.48.51-1.66,1.09-1.38,4.49,1.41,9.79,2.75,14.1,1.7,5.46,3.1,11.1,5.88,16.12.91,1.64,2.3-.41,2.24-1.49Z"/>
        <path d="M311.09,269a65.43,65.43,0,0,0-5-10.77c-.92-1.68-4.61-10.28-6.24-10,1.22-.22,1.3-1.81,1-2.76-.6-1.69-1.87-2.63-3.57-1.58s-1.63,4-1.06,5.72c1.28,3.89,4.31,7.7,6.39,11.21a55.7,55.7,0,0,0,7.18,10.27c1.12,1.17,1.51-1.5,1.31-2.11Z"/>
        <path d="M348.5,251.31a99.22,99.22,0,0,0-10.66-13.7c-1.34-1.51-3.43-3.13-4.11-5-.32-.91,0-1.5-.63-2.42a1.68,1.68,0,0,0-1.35-.81l-.3,0c-1.63.22-2.11,2-2.14,3.43-.08,4.13,2.89,6.65,5.45,9.51,3.85,4.3,7.61,8.61,12.27,12,1.74,1.29,2-2.1,1.46-3.06Z"/>
        <path d="M381.3,230.49c-2-3.68-5.29-6.62-8.33-9.46-3.19-3-6.33-6-9.61-8.9-2.74-2.4-4,4-2.08,5.84,3.13,3,6.42,5.88,9.66,8.78,2.76,2.46,5.73,5.56,9.32,6.69,1.61.51,1.47-2.15,1-2.94Z"/>
        <path class="cls-2" d="M252.5,161.15c-4.42-8.24-12-10.59-20.47-11.21,1.89-3.06,3.81-6.1,4.54-9,1.71-6.8,6.28-8.6,4.12-15.11-1.29-3.88-8.45-8.45-15.84-5.28-4.73,2-7.23,5.56-10.6,9.45a115.61,115.61,0,0,1-1.53-14.67c-.14-3.61-3.74-14.6-10-10.79-7.63,4.67-10.66,11-12.1,19.69-.14,1.17-.26,2.12-.34,2.87l-6.19-8.86c-2.48-3.55-5.37-10.46-9.93-12.05-12.84-4.5-8.93,19.35-7.43,32.32-3.67-1.73-15.37-13.9-20.07-13.73-5.68.2-8.12,7.68-7.39,11.62,1.13,6.12,7.11,10.25,10.09,13-10.62,4.51-28.49.6-27,14.43,1,9.45,13,18.9,21.26,19.51a37,37,0,0,0-4.71,4.24c-7,7.94-10,12.81-10.21,19.56-.2,5.71,8.59,10.49,15,9,5.57-1.32,16.21-13.18,23.14-16.89-.64,4.73-2.29,10.28-2.29,14a39.13,39.13,0,0,0,4.4,18.13c3.63,7.11,10.2,7,13.47-.32A162.08,162.08,0,0,0,190.8,208c3.09,7,6.16,18.85,7.51,21.13,3.66,6.2,3.41,7.69,10.69,7.69,6.34,0,11.12-8.13,10.56-12.68-.74-6.1,1.24-8.51.1-14.49,6.83,3.74,13.32,7.11,22.62,3.64,7.81-2.9,6.76-17.18,1.35-21.66l-8.55-7.1c5.47-.71,10.81-1.84,14.94-6.8C253.62,173.39,255.31,166.39,252.5,161.15Zm-42,7.42c-3.43,2.59-3.93,8-3.52,12.15-3.21.28-5.4,2.66-6.57,5.68-2.75-4.49-6.93-7.49-14.2-7.2a6.49,6.49,0,0,0-5.16,3.18,11.32,11.32,0,0,0-7.92-7.4,13.68,13.68,0,0,0-2.46-.48,33.71,33.71,0,0,0-.18-3.72c-.26-2.6-1.47-8.22-4.45-10.22a13.55,13.55,0,0,0,2.7-4.61c4.57,5.64,12.23,1.22,13.76-6.41,3.3,3.27,6.91,5.31,10.76,4.65s6-3.45,8-6.45a7.23,7.23,0,0,0,.56-1.11c.46,1.82,1,3.64,1.49,5.46.91,3.08,4.43,9.13,8.39,8.5,0,.43,0,.85.07,1.29a21.11,21.11,0,0,0,1.05,5.28A16.67,16.67,0,0,0,210.48,168.57Z"/>
        <path d="M228.58,163.49c-2.82-19.69-21.19-34.84-38.2-34.1-14.84-1.62-31.09,7.49-38.59,22.74-11.51,23.42-2.47,56.12,24.3,64C206.63,225.21,232.63,191.79,228.58,163.49Z"/>
        <path class="cls-2" d="M8.78,151.86c20.08-28,42.93-52.84,74.86-70.31,33.39-18.27,72.85-25.31,111.5-23,81.93,4.79,151.39,49.5,210.52,97.79,7,5.7,10.68-9.54,5.45-13.93-60.89-51.09-136-97.84-221.79-100.13-77.51-2.07-152,39-185.62,102.94C2,148.39,5.09,157,8.78,151.86Z"/>
        <path class="cls-2" d="M.25,77.31a182.63,182.63,0,0,0,13.42,23.46c4.51,6.86,8.91,16.1,15.65,20.89,3.29,2.33,4.23-3.47,3.43-5.52C29.75,108.4,23.69,101.82,19,95c-5-7.28-10-14.68-15.68-21.47-2.26-2.69-4,1.77-3,3.75Z"/>
        <path class="cls-2" d="M54.06,37.51C56.55,46.18,61,54.26,65,62.3,68.36,69,71.09,78.4,77,83.16c3,2.38,4.2-2.82,3.89-4.79-1.29-8.2-6.74-15.9-10.54-23.2S63.18,40.07,58,33.87c-2.37-2.82-4.6,1.24-3.91,3.64Z"/>
        <path class="cls-2" d="M122.85,14.69c1.68,10.54,4.27,20.83,6.85,31.18,1.08,4.32,1.46,15.48,7.11,16.55a2.63,2.63,0,0,0,3-1.31l.4-.66a6.31,6.31,0,0,0-.16-6.5l-.34-.48a2.16,2.16,0,0,0-3.32-.57l-.38.31c-1.78,1.47-1.43,5,.16,6.49l.4.36-1.37-4.66-.14.69,2-3.26-.55.3,3.1,1.16c-2.42-2.8-2.92-9.48-3.86-13q-1.29-4.83-2.6-9.65c-1.82-6.7-3.8-13.29-6.18-19.81-1.52-4.15-4.62.15-4.19,2.84Z"/>
        <path class="cls-2" d="M198,2.48c-2.12,9.43-1.68,19.5-1.18,29.09.41,7.86.14,16.25,3.93,23.28,1.51,2.8,3.93,0,4.32-1.86,1.74-8.15-.59-17.06-1-25.34s-.3-16.92-1.53-25.27c-.51-3.48-3.83-2.86-4.49.11Z"/>
        <path class="cls-2" d="M273.23,11.41c-8.5,15.72-11.64,35.35-15.76,52.64-1.28,5.36,5.06,9.11,6.52,2.55,3.85-17.31,10.44-34.65,12.78-52.2.23-1.73-1.88-6-3.54-3Z"/>
        <path class="cls-2" d="M337.55,37.41c-10.78,13.62-22.57,29.3-30.1,45-1,2,.4,10.28,3.57,6.63,11.77-13.58,21.21-31.4,29.54-47.27,1.12-2.13-.53-7.48-3-4.35Z"/>
        <path class="cls-2" d="M390.28,79.27a143.46,143.46,0,0,1-12.89,20.23c-4.43,5.81-11.87,11-14.22,17.9-.52,1.54-.27,5.15,2.07,5.11,6.37-.11,12.57-10.54,16.07-15.32a107,107,0,0,0,12.77-23.67c.93-2.32-1.88-7.89-3.8-4.25Z"/>
        <path class="cls-2" d="M445.82,113.51c-7.33,4.43-13.91,10.08-20.63,15.52-3.3,2.67-6.65,5.25-10,7.79-1.2.9-8.08,7.83-9.46,7.39L408,148l-.77,3.41a5.49,5.49,0,0,0,1-4.6l-.13-.52c-.45-1.88-2.24-5-4.28-2.81-2.85,3-2.64,7.3-.75,10.86a2.77,2.77,0,0,0,3.43,1.44c2.42-.64,4-2.62,5.84-4.38,4-3.78,7.95-7.56,12-11.23,7.71-7,15.8-13.4,22.84-21.24,1.12-1.25.9-6.8-1.44-5.39Z"/>
        <path class="cls-2" d="M195.12,149.21c-12.22-4.54-28.76,4.28-29.49,17.81a1.29,1.29,0,0,0,0,.24c-1.59,8,.91,17,7.08,22.55,7.91,7.15,27.39,7.71,34.88-6.92C213.67,171,207.84,153.93,195.12,149.21Zm10.25,29.27c-4,9.85-17.1,13.88-26.5,9.91-9.21-3.89-12.13-13.6-10.07-22.38,4.67-7.3,10.42-13.13,20.17-12.7C200.88,153.83,209.94,167.23,205.38,178.47Z"/>
      </g>
    </g>
  </g>
</svg>
