<svg xmlns="http://www.w3.org/2000/svg" viewBox="0 0 433.55 327.52">
  <defs>
    <style>
      .cls-1 {
        fill: #121512;
      }

      .cls-2 {
        fill: #f3cb2b;
      }

      .cls-3 {
        fill: #101211;
      }
    </style>
  </defs>
  <title>Ресурс 12</title>
  <g id="Слой_2" data-name="Слой 2">
    <g id="Слой_4" data-name="Слой 4">
      <g>
        <path class="cls-1" d="M3.85,207.19C48.47,136.5,108.78,68.49,199.46,70.42c95.11,2,165.61,67.1,232.83,126.21,1.21,1.06,1.63-1.72.89-2.51C370.94,127.85,289.68,62.54,194,63.24c-89.46.65-150.75,69.23-191.8,141.53-.69,1.22.53,4.24,1.68,2.43Z"/>
        <path class="cls-1" d="M4.35,206.07c62.48,38.87,142.21,53.92,215,52.54a446.61,446.61,0,0,0,108.14-15.43c34.92-9.46,75.9-22.52,104.77-45,1.45-1.13.87-5.9-1.49-4.93-16.62,6.82-32,16.85-48.63,23.94a426.59,426.59,0,0,1-51.24,18.09A442.83,442.83,0,0,1,219.15,251.7C142.94,253.21,74.09,233,5.4,201.86c-1.9-.86-2.4,3.38-1.06,4.21Z"/>
        <path class="cls-1" d="M.14,91.12c9.06,21.62,24,40.7,40.56,57.09,2.53,2.5,4.08-4,2.11-5.92-16.42-16.17-28.52-34.43-40.34-54C1.06,85.92-.47,89.68.14,91.12Z"/>
        <path class="cls-1" d="M61.06,31.53C63.58,56.81,75.62,81,91,100.93c2.65,3.43,5-2.73,3.18-5.12C79.06,75.69,71.08,54.74,63.9,30.87c-.68-2.26-3.08-1.7-2.84.66Z"/>
        <path class="cls-1" d="M140.19,3.55c3.74,12.13,8.19,24,11.49,36.26,2.54,9.46,3.91,19.3,7.17,28.53.92,2.61,3.22.5,3.16-1.39-.71-21.5-9.44-46.82-19.21-65.83-1.48-2.87-3.2.51-2.61,2.44Z"/>
        <path class="cls-1" d="M250.5,8c-3.67,19.51-9.2,41-8.77,60.94,0,1.8,2.2,3.61,3,1.16,6.26-18.75,6.89-41.27,8.91-60.86.26-2.56-2.54-4.52-3.16-1.24Z"/>
        <path class="cls-1" d="M335.18,32.9c-4.13,11.49-7.28,23.32-11.33,34.86-3.65,10.38-8.93,20.5-11,31.31-.27,1.45,1,3.76,2.41,2,7-8.8,10.12-21.54,13.51-32.16,3.62-11.32,6.89-23,8.46-34.76.18-1.34-1.38-3.31-2.11-1.28Z"/>
        <path class="cls-1" d="M416.47,85.34a538.07,538.07,0,0,1-42.62,55c-2.06,2.33.08,9.57,2.71,6.56a379.22,379.22,0,0,0,42.06-58.42c.9-1.55-.6-5.39-2.15-3.1Z"/>
        <path class="cls-1" d="M43.74,297.86C50,276,59.46,256.73,69.6,236.45c1.08-2.17-.79-7.87-3.1-4.47C53.67,250.91,46,274.1,41.13,296.28c-.38,1.73,1.9,4,2.61,1.58Z"/>
        <path class="cls-1" d="M129.76,317.79c1.47-21.68,5.9-42.74,7.88-64.23.19-2-2.07-5.17-3.27-2-7.4,19.63-8.22,44.95-7.2,65.75.09,1.88,2.43,2.84,2.59.47Z"/>
        <path class="cls-1" d="M219,325.54c.46-22.91.91-45.79.87-68.71,0-1.51-.76-3.23-2.39-3.45l-1.3-.17c-.57-.07-1.27.57-1.51,1l-.71,1.29c-.74,1.34-.76,3.48.5,4.56l.92.79a1.25,1.25,0,0,0,1.31.23l1.26-.61c1.52-.73,1.36-4.14-.49-4.31L217,256l-1,4.3c-3.35,2.11-.57,27.54-.54,31,.08,11.45.58,22.88.83,34.33.06,2.61,2.71,2.51,2.77-.07Z"/>
        <path class="cls-1" d="M309.8,313.68c1.58-14.48,1.38-28.23-2.39-42.4-1.76-6.6-4.9-24-12.43-26.22a1.8,1.8,0,0,0-2.15.93l-.63,1.24c-.72,1.42-.84,4.09,1,4.84l.65.27c1.58.65,2-1.94,1.8-2.9l-.19-1L294.17,252c1.85-.84,9.81,25.56,10.25,27.59a116.22,116.22,0,0,1,2.47,32.92c-.17,2.34,2.58,4.19,2.91,1.14Z"/>
        <path class="cls-1" d="M392.54,290.36a107.84,107.84,0,0,0-6.5-35.87c-3.62-10-9.1-24.47-18.35-30.44-1.77-1.14-2.28,1.78-1.82,2.93,4,10.2,11.31,18.76,15.54,29,4.62,11.23,7.08,22.92,8.63,34.91.29,2.22,2.51,1.31,2.49-.58Z"/>
        <path class="cls-2" d="M282.47,154.34c-4.25-45.17-46.47-75.26-90.74-68.42-16.26,2.51-31.39,10.53-41.53,23-18,15-28.62,38.8-25.06,63.16,6,41.06,46.66,70.4,87.33,65.39C253.71,232.4,286.46,196.79,282.47,154.34Z"/>
        <path class="cls-3" d="M200.79,218.25a51.31,51.31,0,0,1-25.2-6.83,60.46,60.46,0,0,1-29-37.95A56.09,56.09,0,0,1,154,129.19l1.48,1-1.48-1a55.26,55.26,0,0,1,36.39-24.33,61,61,0,0,1,43.22,7.87c26.68,16.18,36.29,52.29,21,78.85-8.77,15.21-25.6,25-44,25.59A45.87,45.87,0,0,1,200.79,218.25Zm.86-111.06A52.65,52.65,0,0,0,150,172.62a56.93,56.93,0,0,0,27.28,35.72c10.22,5.78,22.16,7.74,32.74,5.36l.34,0c17.2-.49,33-9.62,41.17-23.83,14.38-24.94,5.33-58.87-19.75-74.08A58.13,58.13,0,0,0,201.65,107.18Z"/>
        <path class="cls-3" d="M226.8,157.84c-1.25-13.27-13.65-22.11-26.66-20.1a19.53,19.53,0,0,0-12.2,6.76,20.58,20.58,0,0,0-7.36,18.56c1.76,12.07,13.71,20.69,25.66,19.21C218.35,180.77,228,170.31,226.8,157.84Z"/>
      </g>
    </g>
  </g>
</svg>
