<svg xmlns="http://www.w3.org/2000/svg" viewBox="0 0 365.36 375.03">
  <defs>
    <style>
      .cls-1 {
        fill: #101211;
      }

      .cls-2 {
        fill: #0eb3b5;
      }
    </style>
  </defs>
  <title>Ресурс 21</title>
  <g id="Слой_2" data-name="Слой 2">
    <g id="Слой_4" data-name="Слой 4">
      <g>
        <path d="M361.68,214.12c-14.25,36.75-33.27,69.75-68.16,93.48-32.28,22-64.2,37.37-105.38,37.67-78.59.57-167.07-50.39-183.62-123.32-.45-2-2.58-1.26-2.5.53,1.67,38.13,37,71.15,68.33,92.74a208.87,208.87,0,0,0,113.91,36.17c83.31,1.2,162.76-62,181-135.27C365.84,213.93,362.87,211,361.68,214.12Z"/>
        <path class="cls-1" d="M222.21,67C156.54,47.47,80.52,69.57,39.52,120,15.1,150,3.76,185.39,0,222.27c-.17,1.72,2,3,2.33.87.32,1,1.07,1.62,1.87.53,37.39-50.56,96.61-82.6,163.69-86.2A213.3,213.3,0,0,1,267.16,156c36.2,16.22,65.34,40.41,97.5,61.85a7.8,7.8,0,0,1,.51,1l.12-2.69C344.85,150.15,294.36,88.53,222.21,67Z"/>
        <path class="cls-2" d="M193,152.38c-31.47-5-66,3.69-86.39,27.16-1,1.18-2,2.38-2.87,3.58-28.5,30.83-21,84.71,9.81,112.74,43.26,39.3,123.62,24.71,150.64-24.07C292.75,220.22,252,161.67,193,152.38Z"/>
        <path class="cls-1" d="M13.8,66c8.5,23.14,18.3,62.44,46.69,72.26,1.89.65,2.12-2.82,1-3.58C35.8,117.52,28.67,89.29,16.18,64c-1.19-2.42-3,.41-2.37,2Z"/>
        <path class="cls-1" d="M72.7,24.42c6,25.61,17.27,53.4,32.44,75.66,1.59,2.33,3.12-1.46,2.53-2.86C97.17,72.42,85.93,47.65,75.05,23c-.9-2-2.69,0-2.35,1.46Z"/>
        <path class="cls-1" d="M174.34,1.81c-.35,26.34-8.87,57.3,2.43,82.53,1,2.3,2.93,0,2.61-1.62-5.54-27.3.42-53.69-2.26-81-.23-2.34-2.74-2.34-2.78.06Z"/>
        <path class="cls-1" d="M278.67,24.51c-9.61,25.47-23,49-34.37,73.68-.67,1.45.93,4.72,2.56,2.62,16.7-21.5,26.79-49.17,34.32-74.35.5-1.67-1.56-4.47-2.51-1.95Z"/>
        <path class="cls-1" d="M361.47,78.21c-17.23,24.15-36.19,44-59.21,63.67-1,.86-.53,4.62,1.2,3.62,25.86-14.9,47.79-39.75,60-65.27.53-1.11-.8-3.68-2-2Z"/>
        <path class="cls-1" d="M31.56,332.33c4.33-5,7.48-10.91,11.14-16.32,3.41-5,8-9.87,10.28-15.41.42-1-.27-3.54-1.87-2.47-5.12,3.45-8.58,10.3-11.8,15.26-3.58,5.52-7.19,11.24-9.25,17.4-.28.84.44,2.75,1.5,1.53Z"/>
        <path class="cls-1" d="M86.53,357.65c2.22-4.47,3.95-9.12,6-13.67s5.12-9.05,6.48-13.88c.2-.71-.36-3.64-1.74-2.3-3.49,3.39-5.37,8.72-7.27,13a69.2,69.2,0,0,0-5.23,15.87c-.2,1.11,1.06,2.47,1.79,1Z"/>
        <path class="cls-1" d="M154.23,374c1.15-8.13,1.89-16.27,2.6-24.44l-1.57,1.75a2.33,2.33,0,0,1,2.21.11c.81.59,1.46-.52,1.38-1.16-.25-2.11-1.06-3.9-3.72-3.61a1.91,1.91,0,0,0-1.57,1.75c-.67,8.42-1.3,16.81-1.53,25.25,0,1.52,1.94,2.12,2.19.36Z"/>
        <path class="cls-1" d="M233.49,372.54a92.28,92.28,0,0,0-2-28c-.68-3.08-3.87-1.17-3.27,1.34a132.63,132.63,0,0,1,3.55,26.35c0,1.12,1.56,1.66,1.67.28Z"/>
        <path class="cls-1" d="M298.88,348.54a149.51,149.51,0,0,0-5.29-16.23c-1.93-4.89-3.49-11-7.27-15-1.26-1.32-2.08.59-1.92,1.63.8,5.15,3.72,10,5.77,14.82,2.26,5.31,4.57,10.6,7,15.86.68,1.48,2,0,1.73-1.07Z"/>
        <path class="cls-1" d="M346.4,307c-4.17-9.41-11-17.74-18.19-25.41-2.29-2.46-4.23,2.11-2.6,3.82,7.08,7.41,12.68,15.66,19.08,23.52,1.21,1.49,2.13-1,1.71-1.92Z"/>
        <path class="cls-1" d="M201,223.11c-2.59-10.35-11.38-16.1-22.56-17.37-10.23-1.16-18.26,4-22.08,12.47a27,27,0,0,0,1.56,24.37,20.74,20.74,0,0,0,9.61,9.29c7.92,3.7,18.23,2.24,25.07-2.75C200.86,243.05,203.24,232.24,201,223.11Z"/>
        <path d="M193.63,162.83c-25.44-4.74-55,3.28-71.37,21.79a.54.54,0,0,0-.44.29c-.31.43-.6.87-.9,1.3a49.81,49.81,0,0,0-7.73,12.94,1.8,1.8,0,0,0,0,1.12c-9.14,21.69-8.07,46.59,6.2,66.69a70.65,70.65,0,0,0,78.07,26.39c29.59-9.2,48.56-34.84,48.82-63.09C246.6,200.32,227.38,169.12,193.63,162.83ZM148.13,285.76c-36.78-17.21-44.05-55.79-30.93-88.26,16.35-24.8,49-37.1,80.2-29.37,41.67,10.34,57.12,61.76,36,93.78C216.12,288,178.28,299.87,148.13,285.76Z"/>
        <path class="cls-2" d="M179.26,31.1c1,0,.92-2.18-.05-2.18s-.92,2.18.05,2.18Z"/>
      </g>
    </g>
  </g>
</svg>
