<svg xmlns="http://www.w3.org/2000/svg" viewBox="0 0 117.9 126.39">
  <defs>
    <style>
      .cls-1 {
        fill: #0eb3b5;
      }

      .cls-2 {
        fill: #101211;
      }

      .cls-3 {
        fill: #fff;
      }
    </style>
  </defs>
  <title>Ресурс 29</title>
  <g id="Слой_2" data-name="Слой 2">
    <g id="Слой_4" data-name="Слой 4">
      <g>
        <g>
          <path class="cls-1" d="M82.48,4.91c-23-10.79-47-2.81-61.58,14.27a5.13,5.13,0,0,0-.8.55C-6.17,41.79-6.56,86.62,18.17,110.17c27.84,26.51,73.15,19.59,91.39-14C127,63.92,116.64,21,82.48,4.91Z"/>
          <path class="cls-2" d="M68.65,30C57.26,25.16,42.91,28.44,35,37.92,25,49.83,26.05,68.3,34.65,80.7c9,13,26,18.21,39.14,7.69A31.44,31.44,0,0,0,84.23,71.87C88.92,56.44,84.18,36.72,68.65,30Z"/>
        </g>
        <g>
          <path class="cls-3" d="M88,78c-3.65-3.07-9.52-6.48-14.38-4.32-4.57,2-5.3,7.6-3.9,11.88.07.22.16.46.25.69,1.13,7.07,7.66,14.09,14.68,14.23,4.95.1,8.59-3.8,9.32-8.51C94.85,86.53,92.13,81.49,88,78Z"/>
          <path class="cls-3" d="M87.84,54.71C91.75,52,93,45.94,89.7,42.29a7.22,7.22,0,0,0-8.59-1.63,8,8,0,0,0-4.17,9C78.1,54.5,83.44,57.74,87.84,54.71Zm-.49-4.44a4.8,4.8,0,0,1-7.4-.75,3.75,3.75,0,0,1,.77-5,6.24,6.24,0,0,1,5.45-.21C88.88,45.49,89.56,48.1,87.35,50.27Z"/>
        </g>
      </g>
    </g>
  </g>
</svg>
